<svg width="245" height="255" viewBox="0 0 245 255" fill="none" xmlns="http://www.w3.org/2000/svg">
<g clip-path="url(#clip0_226_158)">
<path d="M230.695 155.8C223.664 152.609 214.789 152.301 206.305 154.649C198.11 156.913 189.579 157.372 181.999 154.237C171.764 149.999 165.226 139.482 164.891 128.722C164.556 117.971 169.929 107.295 178.143 99.7249C186.45 92.0804 197.244 87.4956 206.454 80.8897C215.823 74.1809 223.645 65.1516 227.445 54.6159C231.254 44.0802 230.723 32.01 224.809 22.6532C219.315 13.9608 210.039 8.49641 199.972 4.6882L199.711 4.60399C174.688 -1.52469 146.107 -1.74926 117.024 5.24025C39.1596 23.9725 -12.7404 87.8699 2.72806 145.947C17.824 202.593 90.9199 233.068 166.959 214.111C192.494 207.739 214.5 196.502 232.474 182.289C243.081 173.905 242.159 161.012 230.686 155.8H230.695Z" fill="#CAB094"/>
<path d="M150.953 79.5647C167.123 76.6004 177.839 61.0237 174.888 44.7731C171.937 28.5224 156.436 17.7517 140.266 20.716C124.096 23.6802 113.379 39.257 116.33 55.5076C119.281 71.7582 134.782 82.529 150.953 79.5647Z" fill="#FF3434"/>
<path d="M87.2705 104.897C99.0696 93.042 99.3055 74.0585 87.7974 62.4961C76.2893 50.9336 57.3951 51.1706 45.596 63.0254C33.797 74.8802 33.5611 93.8637 45.0692 105.426C56.5773 116.989 75.4715 116.752 87.2705 104.897Z" fill="#FFEB34"/>
<path d="M135.007 178.2C143.833 162.842 138.654 143.237 123.441 134.412C108.227 125.587 88.7398 130.883 79.9143 146.242C71.0887 161.6 76.2672 181.205 91.4807 190.03C106.694 198.855 126.182 193.559 135.007 178.2Z" fill="#3EA2FF"/>
<path d="M160.738 254.383L154.117 251.173C151.109 249.714 149.786 246.13 151.137 243.052L198.688 134.157C200.103 130.92 203.903 129.516 207.069 131.051L221.429 138.022C224.596 139.556 225.862 143.43 224.214 146.546L168.924 251.688C167.369 254.654 163.746 255.852 160.738 254.392V254.383Z" fill="#998161"/>
<path d="M229.094 126.108L211.273 117.463C209.142 116.43 206.581 117.328 205.552 119.468L204.742 121.153C203.714 123.294 204.607 125.867 206.738 126.901L224.559 135.545C226.69 136.579 229.251 135.681 230.28 133.54L231.089 131.855C232.118 129.714 231.225 127.141 229.094 126.108Z" fill="#E6DED6"/>
<path d="M240.93 111.71C242.541 108.473 243.594 104.543 244.264 101.231C245.419 95.5046 245.13 88.3841 243.976 82.4706C243.436 79.6916 242.393 76.9875 241.359 74.3021C241.014 73.4226 239.99 72.3091 239.31 72.908C239.114 73.0764 239.049 73.3477 238.993 73.6004C237.792 78.7466 236.023 84.9127 230.733 86.5782C228.293 87.3455 225.657 87.9536 223.311 88.9174C218.403 90.9384 214.091 99.7151 213.905 104.88C213.56 110.485 216.55 115.996 221.886 118.588C228.135 121.619 235.482 119.626 239.459 114.209H239.468C239.515 114.143 239.561 114.059 239.608 113.984C240.055 113.348 240.474 112.674 240.819 111.944C240.856 111.86 240.884 111.776 240.921 111.692L240.93 111.71Z" fill="#FFBF6A"/>
</g>
<defs>
<clipPath id="clip0_226_158">
<rect width="245" height="255" fill="white"/>
</clipPath>
</defs>
</svg>
