<svg width="50" height="50" viewBox="0 0 50 50" fill="none" xmlns="http://www.w3.org/2000/svg">
<g id="Favicon 1">
<g clip-path="url(#clip0_6_19)">
<g id="Layer 1">
<g id="Group">
<path id="Vector" d="M50 0H0V50H50V0Z" fill="#EFEAE1"/>
<g id="Group_2">
<path id="Vector_2" d="M24.8706 24.7624C20.6576 24.7624 17.2101 28.2094 17.2101 32.4229V38.3074C17.2101 38.9629 17.7466 39.4989 18.4016 39.4989H31.3391C31.9946 39.4989 32.5306 38.9624 32.5306 38.3074V32.4229C32.5306 28.2099 29.0836 24.7624 24.8701 24.7624H24.8706Z" fill="white"/>
<path id="Vector_3" d="M17.6086 16.3899C17.6086 13.8903 15.5824 11.8639 13.0828 11.8639C10.5833 11.8639 8.5571 13.8903 8.5571 16.3899V21.8324C8.5571 24.332 10.5833 26.3584 13.0828 26.3584C15.5824 26.3584 17.6086 24.332 17.6086 21.8324V16.3899Z" fill="white"/>
<path id="Vector_4" d="M41.5821 16.3899C41.5821 13.8903 39.5558 11.8639 37.0563 11.8639C34.5568 11.8639 32.5306 13.8903 32.5306 16.3899V21.8324C32.5306 24.332 34.5568 26.3584 37.0563 26.3584C39.5558 26.3584 41.5821 24.332 41.5821 21.8324V16.3899Z" fill="white"/>
<path id="Vector_5" d="M14.3161 15.2244H14.3156C12.9752 15.2244 11.8886 16.311 11.8886 17.6514V20.5709C11.8886 21.9113 12.9752 22.9979 14.3156 22.9979H14.3161C15.6565 22.9979 16.7431 21.9113 16.7431 20.5709V17.6514C16.7431 16.311 15.6565 15.2244 14.3161 15.2244Z" fill="#4D4D4D"/>
<path id="Vector_6" d="M35.8266 15.2244H35.8261C34.4857 15.2244 33.3991 16.311 33.3991 17.6514V20.5709C33.3991 21.9113 34.4857 22.9979 35.8261 22.9979H35.8266C37.167 22.9979 38.2536 21.9113 38.2536 20.5709V17.6514C38.2536 16.311 37.167 15.2244 35.8266 15.2244Z" fill="#4D4D4D"/>
<path id="Vector_7" d="M24.8706 26.3589C22.3286 26.3589 20.2486 28.4389 20.2486 30.9809V31.8834C20.2486 33.1664 21.2986 34.2164 22.5816 34.2164H27.1596C28.4426 34.2164 29.4926 33.1664 29.4926 31.8834V30.9809C29.4926 28.4389 27.4126 26.3589 24.8706 26.3589Z" fill="#4D4D4D"/>
<path id="Vector_8" d="M24.8706 44.1999C28.3311 44.1999 31.1626 42.9599 31.1626 39.4994H18.5786C18.5786 42.9599 21.4101 44.1999 24.8706 44.1999Z" fill="#F5F5F5"/>
<path id="Vector_9" d="M11.1971 5.91239C8.78409 6.47639 7.13359 8.32589 7.53009 10.0224C7.63209 10.4584 7.98259 10.7934 8.46259 10.9799C9.11359 11.2329 9.99459 11.0699 10.5731 10.6109C10.9071 10.3459 11.4211 10.0359 12.1306 9.87139C12.8311 9.70939 13.4226 9.75889 13.8356 9.84739C14.5601 10.0024 15.4231 9.75789 15.8951 9.24089C15.9006 9.23489 15.9056 9.22939 15.9111 9.22339C16.2466 8.84739 16.4046 8.39989 16.3046 7.97189C15.9081 6.27539 13.6096 5.34839 11.1961 5.91239H11.1971Z" fill="#E0D6C3"/>
<path id="Vector_10" d="M38.9421 5.91239C41.3551 6.47639 43.0056 8.32589 42.6091 10.0224C42.5071 10.4584 42.1566 10.7934 41.6766 10.9799C41.0256 11.2329 40.1446 11.0699 39.5661 10.6109C39.2321 10.3459 38.7181 10.0359 38.0086 9.87139C37.3081 9.70939 36.7166 9.75889 36.3036 9.84739C35.5791 10.0024 34.7161 9.75789 34.2441 9.24089C34.2386 9.23489 34.2336 9.22939 34.2281 9.22339C33.8926 8.84739 33.7346 8.39989 33.8346 7.97189C34.2311 6.27539 36.5296 5.34839 38.9431 5.91239H38.9421Z" fill="#E0D6C3"/>
<path id="Vector_11" d="M14.8586 18.1899C15.4098 18.1899 15.8566 17.7431 15.8566 17.1919C15.8566 16.6407 15.4098 16.1939 14.8586 16.1939C14.3074 16.1939 13.8606 16.6407 13.8606 17.1919C13.8606 17.7431 14.3074 18.1899 14.8586 18.1899Z" fill="white"/>
<path id="Vector_12" d="M35.2836 18.1324C35.8348 18.1324 36.2816 17.6856 36.2816 17.1344C36.2816 16.5832 35.8348 16.1364 35.2836 16.1364C34.7324 16.1364 34.2856 16.5832 34.2856 17.1344C34.2856 17.6856 34.7324 18.1324 35.2836 18.1324Z" fill="white"/>
</g>
</g>
</g>
</g>
</g>
<defs>
<clipPath id="clip0_6_19">
<rect width="50" height="50" rx="20" fill="white"/>
</clipPath>
</defs>
</svg>
