<svg width="75" height="43" viewBox="0 0 75 43" fill="none" xmlns="http://www.w3.org/2000/svg">
<path d="M5.626 42.522C4.42733 42.522 3.422 42.2513 2.61 41.71C1.798 41.13 1.29533 40.3567 1.102 39.39C0.908667 38.3847 1.08267 37.2633 1.624 36.026L16.066 4.938C16.762 3.43 17.6127 2.328 18.618 1.632C19.662 0.935997 20.8413 0.587997 22.156 0.587997C23.4707 0.587997 24.6113 0.935997 25.578 1.632C26.5833 2.328 27.4533 3.43 28.188 4.938L42.63 36.026C43.2487 37.2633 43.4613 38.3847 43.268 39.39C43.1133 40.3953 42.63 41.1687 41.818 41.71C41.0447 42.2513 40.078 42.522 38.918 42.522C37.3713 42.522 36.1727 42.174 35.322 41.478C34.51 40.782 33.7753 39.6607 33.118 38.114L29.986 30.748L34.046 33.706H10.15L14.268 30.748L11.136 38.114C10.44 39.6607 9.72467 40.782 8.99 41.478C8.25533 42.174 7.134 42.522 5.626 42.522ZM22.04 12.246L15.312 28.312L13.688 25.528H30.566L28.942 28.312L22.156 12.246H22.04ZM57.1703 42.638C54.9663 42.638 53.0137 42.232 51.3123 41.42C49.6497 40.608 48.335 39.506 47.3683 38.114C46.4403 36.6833 45.9763 35.0593 45.9763 33.242C45.9763 31.154 46.5177 29.5107 47.6003 28.312C48.683 27.1133 50.423 26.2627 52.8203 25.76C55.2177 25.2187 58.4077 24.948 62.3903 24.948H65.5803V29.82H62.3903C60.8823 29.82 59.6257 29.936 58.6203 30.168C57.6537 30.3613 56.9383 30.69 56.4743 31.154C56.0103 31.5793 55.7783 32.14 55.7783 32.836C55.7783 33.7253 56.0877 34.46 56.7063 35.04C57.3637 35.62 58.2917 35.91 59.4903 35.91C60.457 35.91 61.3077 35.6973 62.0423 35.272C62.8157 34.8467 63.4343 34.2667 63.8983 33.532C64.3623 32.7587 64.5943 31.8693 64.5943 30.864V24.136C64.5943 22.744 64.227 21.758 63.4923 21.178C62.7963 20.598 61.5783 20.308 59.8383 20.308C58.9103 20.308 57.8663 20.424 56.7063 20.656C55.5463 20.8493 54.251 21.2167 52.8203 21.758C51.7763 22.1447 50.887 22.2027 50.1523 21.932C49.4177 21.6613 48.8377 21.1973 48.4123 20.54C48.0257 19.8827 47.8323 19.1673 47.8323 18.394C47.871 17.6207 48.1223 16.886 48.5863 16.19C49.089 15.494 49.843 14.9527 50.8483 14.566C52.7043 13.87 54.4057 13.406 55.9523 13.174C57.5377 12.942 58.9877 12.826 60.3023 12.826C63.473 12.826 66.083 13.29 68.1323 14.218C70.2203 15.1073 71.767 16.4993 72.7723 18.394C73.8163 20.25 74.3383 22.6473 74.3383 25.586V37.302C74.3383 39.0033 73.9323 40.2987 73.1203 41.188C72.3083 42.0773 71.129 42.522 69.5823 42.522C67.997 42.522 66.779 42.0773 65.9283 41.188C65.1163 40.2987 64.7103 39.0033 64.7103 37.302V35.794L65.0583 36.606C64.865 37.8433 64.4203 38.9067 63.7243 39.796C63.0283 40.6853 62.1197 41.3813 60.9983 41.884C59.877 42.3867 58.601 42.638 57.1703 42.638Z" fill="white"/>
</svg>
