<svg width="71" height="99" viewBox="0 0 71 99" fill="none" xmlns="http://www.w3.org/2000/svg">
<rect y="79.7256" width="70.9646" height="19.2743" fill="#EFEAE1"/>
<g clip-path="url(#clip0_165_156)">
<path d="M41.4818 9.74777C42.7854 4.03134 45.5514 2.47848 49.5922 2.97349C49.036 1.58677 47.9099 0.978168 46.8499 0.632334C41.9231 -0.981557 37.4359 0.920529 35.6911 1.64102C35.4544 1.73934 33.3393 2.94298 33.1128 2.99723C32.7831 3.07521 32.4618 2.84804 32.1575 2.648C29.6603 1.00699 26.737 0.861195 24.1722 2.24962C25.1478 2.74972 26.1402 3.26169 26.9737 4.16696C27.8073 5.07223 28.7017 8.21186 28.7456 9.74777H41.4818Z" fill="#EFEAE1"/>
<path d="M35.4831 5.49603C55.0668 5.49603 70.9663 21.4383 70.9663 41.0745V81.0438C70.9663 90.956 62.9404 99.0017 53.0565 99.0017H17.9098C8.02585 99 0 90.9543 0 81.0421V41.0728C0 21.4383 15.8995 5.49603 35.4831 5.49603Z" fill="#EFEAE1"/>
<path d="M35.4831 52.265C28.9215 52.265 23.5517 57.6491 23.5517 64.2285V73.4185C23.5517 74.4424 24.3869 75.2799 25.4081 75.2799H45.5581C46.5793 75.2799 47.4146 74.4424 47.4146 73.4185V64.2285C47.4146 57.6491 42.0448 52.265 35.4831 52.265Z" fill="white"/>
<path d="M24.1722 39.1877C24.1722 35.2844 21.0164 32.1201 17.1236 32.1201C13.2308 32.1201 10.075 35.2844 10.075 39.1877V47.6894C10.075 51.5928 13.2308 54.757 17.1236 54.757C21.0164 54.757 24.1722 51.5928 24.1722 47.6894V39.1877Z" fill="white"/>
<path d="M61.5101 39.1877C61.5101 35.2844 58.3543 32.1201 54.4615 32.1201C50.5686 32.1201 47.4129 35.2844 47.4129 39.1877V47.6894C47.4129 51.5928 50.5686 54.757 54.4615 54.757C58.3543 54.757 61.5101 51.5928 61.5101 47.6894V39.1877Z" fill="white"/>
<path d="M22.8247 41.1593C22.8247 39.0658 21.1322 37.3687 19.0443 37.3687C16.9564 37.3687 15.2638 39.0658 15.2638 41.1593V45.7179C15.2638 47.8113 16.9564 49.5085 19.0443 49.5085C21.1322 49.5085 22.8247 47.8113 22.8247 45.7179V41.1593Z" fill="#4D4D4D"/>
<path d="M56.3263 41.1593C56.3263 39.0658 54.6338 37.3687 52.5459 37.3687C50.458 37.3687 48.7654 39.0658 48.7654 41.1593V45.7179C48.7654 47.8113 50.458 49.5085 52.5459 49.5085C54.6338 49.5085 56.3263 47.8113 56.3263 45.7179V41.1593Z" fill="#4D4D4D"/>
<path d="M35.4831 54.757C31.5235 54.757 28.2841 58.0051 28.2841 61.9755V63.3842C28.2841 65.388 29.919 67.0273 31.9174 67.0273H39.0472C41.0456 67.0273 42.6805 65.388 42.6805 63.3842V61.9755C42.6805 58.0051 39.4411 54.757 35.4815 54.757H35.4831Z" fill="#4D4D4D"/>
<path d="M66.2999 5.04001C62.1492 1.7512 56.071 2.46491 52.791 6.62678L51.6261 8.10335C49.9709 10.2038 50.3294 13.2807 52.4242 14.9404L59.8971 20.8636C61.9919 22.5233 65.0606 22.1639 66.7158 20.0634L67.8807 18.5869C71.1607 14.425 70.4489 8.33052 66.2982 5.04171L66.2999 5.04001Z" fill="#EFEAE1"/>
<path d="M4.6647 5.04001C8.81542 1.7512 14.8936 2.46491 18.1736 6.62678L19.3385 8.10335C20.9937 10.2038 20.6352 13.2807 18.5404 14.9404L11.0675 20.8636C8.97265 22.5233 5.904 22.1639 4.24878 20.0634L3.08387 18.5869C-0.197813 14.425 0.51398 8.32882 4.6647 5.04001Z" fill="#EFEAE1"/>
<path d="M35.4831 82.6187C40.8732 82.6187 45.2826 80.6827 45.2826 75.2782H25.6837C25.6837 80.6827 30.0931 82.6187 35.4831 82.6187Z" fill="#F5F5F5"/>
<path d="M14.1868 22.8267C10.4284 23.7065 7.85847 26.5953 8.47558 29.245C8.63451 29.9248 9.18061 30.4486 9.92791 30.7402C10.9423 31.1352 12.3135 30.8809 13.2147 30.1638C13.7354 29.7502 14.5351 29.2653 15.6409 29.0093C16.7314 28.7567 17.6528 28.833 18.297 28.972C19.4247 29.2145 20.7705 28.833 21.5043 28.0244C21.5127 28.0159 21.5212 28.0057 21.5296 27.9973C22.0521 27.4107 22.2989 26.7106 22.1434 26.0426C21.5262 23.3929 17.9453 21.9452 14.1868 22.8267Z" fill="#E0D6C3"/>
<path d="M57.4 22.8267C61.1584 23.7065 63.7283 26.5953 63.1112 29.245C62.9523 29.9248 62.4062 30.4486 61.6589 30.7402C60.6444 31.1352 59.2733 30.8809 58.3721 30.1638C57.8514 29.7502 57.0517 29.2653 55.9459 29.0093C54.8554 28.7567 53.934 28.833 53.2898 28.972C52.1621 29.2145 50.8163 28.833 50.0825 28.0244C50.0741 28.0159 50.0656 28.0057 50.0572 27.9973C49.5347 27.4107 49.2879 26.7106 49.4434 26.0426C50.0605 23.3929 53.6415 21.9452 57.4 22.8267Z" fill="#E0D6C3"/>
<path d="M19.8896 41.9985C20.7478 41.9985 21.4434 41.3009 21.4434 40.4405C21.4434 39.5801 20.7478 38.8826 19.8896 38.8826C19.0315 38.8826 18.3359 39.5801 18.3359 40.4405C18.3359 41.3009 19.0315 41.9985 19.8896 41.9985Z" fill="white"/>
<path d="M51.7005 41.9086C52.5587 41.9086 53.2543 41.2111 53.2543 40.3507C53.2543 39.4902 52.5587 38.7927 51.7005 38.7927C50.8424 38.7927 50.1468 39.4902 50.1468 40.3507C50.1468 41.2111 50.8424 41.9086 51.7005 41.9086Z" fill="white"/>
</g>
<defs>
<clipPath id="clip0_165_156">
<rect width="70.9646" height="99" fill="white"/>
</clipPath>
</defs>
</svg>
