<?xml version="1.0" encoding="utf-8"?>
<!-- Generator: Adobe Illustrator 26.5.0, SVG Export Plug-In . SVG Version: 6.00 Build 0)  -->
<svg version="1.1" id="Layer_1" xmlns="http://www.w3.org/2000/svg" xmlns:xlink="http://www.w3.org/1999/xlink" x="0px" y="0px"
	 viewBox="0 0 193 270" style="enable-background:new 0 0 193 270;" xml:space="preserve">
<style type="text/css">
	.st0{clip-path:url(#SVGID_00000129173806407486804870000016696614393903452584_);}
	.st1{fill:#DFFFFF;}
	.st2{fill:#C7F1FB;}
	.st3{clip-path:url(#SVGID_00000077302356326127569960000001009821046469271735_);}
	.st4{fill:#E0D6C3;}
	.st5{fill:#EFEAE1;}
	.st6{fill:#4D4D4D;}
</style>
<g>
	<defs>
		<rect id="SVGID_1_" y="81" width="193" height="189"/>
	</defs>
	<clipPath id="SVGID_00000059290442849337959550000014936034219267974841_">
		<use xlink:href="#SVGID_1_"  style="overflow:visible;"/>
	</clipPath>
	<g style="clip-path:url(#SVGID_00000059290442849337959550000014936034219267974841_);">
		<path class="st1" d="M37.5,211.6l37.5-99.9H0L37.5,211.6z"/>
		<path class="st2" d="M37.5,211.6l37.5-99.9H37.5"/>
		<path class="st1" d="M134,171.9l59-60.3H75.1L134,171.9z"/>
		<path class="st2" d="M134,171.9l59-60.3h-59"/>
		<path class="st1" d="M87.7,270L134,111.7H41.3L87.7,270z"/>
		<path class="st2" d="M87.7,270L134,111.7H87.7"/>
		<path class="st1" d="M0,105v6.7h193V105c0-2.5-1.4-4.7-3.6-5.9C141.4,75,51.6,75,3.6,99.1C1.4,100.2,0,102.5,0,105L0,105z"/>
		<path class="st2" d="M87.7,111.7H193V105c0-2.5-1.4-4.7-3.6-5.9c-15.1-7.6-34.5-12.8-55.3-15.7L87.7,111.7L87.7,111.7z"/>
		<path class="st2" d="M53.5,90.3c0.5,7.8,9.3,13,16.7,15.5c2.8,1,10.3,5.1,17.5,5.8c1.1,0.1,4.4-1.4,7.2-1.1
			c8.8,0.7,10.6-1,18.2-1.2c6.6-0.2,13.3-0.8,19.4-3.2c2.4-1,4.9-2.4,6.2-4.6c1.4-2.3,1.3-5.2,1.2-7.9c0-1-0.1-2-0.7-2.8
			c-0.6-0.8-1.7-1.2-2.6-1.5c-1.7-0.5-0.7-5.4-2.4-5.8c-0.7-0.2-2.9-0.1-6.1,0.2c-2.5,0.2-7.9,2.1-10.5,2.1
			c-4.2,0.1-8.3,0.2-12.5,0.3c-3.4,0.1-6.9,0.1-10.3,0.5c-4.9,0.6-9.7,1.7-14.6,2.5c-4.9,0.7-9.9,1-14.8,0.7L53.5,90.3L53.5,90.3z"
			/>
	</g>
</g>
<g>
	<defs>
		<rect id="SVGID_00000145758674532560991000000015247419506403388084_" x="50" width="94" height="104"/>
	</defs>
	<clipPath id="SVGID_00000091712067277084448210000014181796259065899408_">
		<use xlink:href="#SVGID_00000145758674532560991000000015247419506403388084_"  style="overflow:visible;"/>
	</clipPath>
	<g style="clip-path:url(#SVGID_00000091712067277084448210000014181796259065899408_);">
		<path class="st4" d="M143.5,6.4c-0.8,5.2-12.4,18.8-15.2,25.6c-2.8,6.7-5,33.1-8.2,39.9c-3.2,6.7-1.5,17.6,1.7,18.9
			c3.3,1.2,8.2,3.1,5.9,6.4c-2.3,3.4-9.3,1.8-10.5,1.8c0,0,3.9,4.9-3.4,5.1c-7.3,0.2-13.3-1.1-16.1-2.5c-0.4-0.2-1-0.4-1.8-0.5
			c-3.5-0.5-9.6,0-10.7,0.2c-1.3,0.3-22-8.3-22-8.3s6.5-19.2,8-21.5c1.5-2.3,23.4-24.4,23.4-24.4s11-13.2,11.1-13.6
			c0.2-0.5,15.9-14,15.9-14L132,8.6l8.2-2.3L143.5,6.4L143.5,6.4z"/>
		<path class="st5" d="M143.5,6.4c0,1.7-15.8,14.9-18.2,22.6s-15.5,14.2-17.5,21.9c-1.9,7.7-6.6,34.4,0,43.3
			c4.9,7.2,1.9,7.9,0.7,8.7c-1.2,0.7-14.3,1.2-15.1-7.2c-0.7-8.4,1.2-23.8-3.6-26.2c0,0,5.2,20.2-9.8,22.4c0,0,13,2.9,10,7
			c-2.9,4.1-18.5,3.9-21.5,2.9c-2.9-1-21.4-6.2-18.2-23.1c5.3-26.2,18.2-40.7,37.7-43.1c8-1.9,16.6-13,15.2-16.6
			c-1.4-3.6-1.4-7.2,2.3-7.2S117.5,1.3,129.9,3c4.9-0.2,8.2-3.6,9.4-2.2C140.6,2.3,143.5,6.4,143.5,6.4z"/>
		<path class="st6" d="M143.3,7c0.5-1.1,0.8-2.5,0.6-3.8c-0.1-1.3-0.9-2.6-2-3.1c-1-0.4-3.4,0.2-4.4,0.5c0,0.5,0.3,3.5,3.2,5.4
			C141.7,6.6,142.7,6.8,143.3,7z"/>
		<path class="st6" d="M121.3,8.2c0.9-0.4,1.4-1.2,1.1-1.8c-0.3-0.6-1.2-0.9-2.1-0.5s-1.4,1.2-1.1,1.8
			C119.5,8.3,120.4,8.5,121.3,8.2z"/>
	</g>
</g>
</svg>
