<svg width="193" height="270" viewBox="0 0 193 270" fill="none" xmlns="http://www.w3.org/2000/svg">
<g clip-path="url(#clip0_192_96)">
<path d="M37.5373 211.615L75.0745 111.669H0L37.5373 211.615Z" fill="#DFFFFF"/>
<path d="M37.5373 211.615L75.0745 111.669H37.5373" fill="#C7F1FB"/>
<path d="M134.034 171.921L193 111.669H75.0746L134.034 171.921Z" fill="#DFFFFF"/>
<path d="M134.034 171.921L193 111.669H134.034" fill="#C7F1FB"/>
<path d="M87.6595 270L134.034 111.669H41.2848L87.6595 270Z" fill="#DFFFFF"/>
<path d="M87.6595 270L134.034 111.669H87.6595" fill="#C7F1FB"/>
<path d="M-0.000163393 104.963V111.669H193V104.963C193 102.488 191.602 100.224 189.383 99.1072C141.442 74.9643 51.5514 74.9643 3.61062 99.1072C1.39816 100.224 -0.00637817 102.482 -0.00637817 104.963H-0.000163393Z" fill="#DFFFFF"/>
<path d="M87.6595 111.669H193V104.963C193 102.488 191.602 100.224 189.383 99.1072C174.238 91.4773 154.91 86.2603 134.034 83.4503L87.6595 111.663V111.669Z" fill="#C7F1FB"/>
<path d="M53.4844 90.3049C54.0002 98.0589 62.8252 103.332 70.2022 105.832C73.0361 106.793 80.4565 110.918 87.6595 111.669C88.7781 111.787 92.0222 110.298 94.8313 110.527C103.644 111.247 105.44 109.504 113.028 109.299C119.603 109.125 126.284 108.549 132.381 106.092C134.823 105.106 137.26 103.716 138.577 101.446C139.932 99.1072 139.882 96.2476 139.789 93.5429C139.758 92.5628 139.702 91.5207 139.112 90.7391C138.503 89.9203 137.452 89.5729 136.477 89.2751C134.761 88.7478 135.781 83.8597 134.028 83.4503C133.363 83.2952 131.169 83.3759 127.906 83.6798C125.383 83.9155 119.976 85.7703 117.441 85.8261C113.277 85.9192 109.113 86.006 104.955 86.0991C101.506 86.1735 98.0568 86.2479 94.6262 86.6387C89.7103 87.1908 84.8877 88.3819 79.9904 89.1014C75.0994 89.821 70.14 90.0629 65.1993 89.8334L53.4782 90.3049H53.4844Z" fill="#C7F1FB"/>
</g>
<g clip-path="url(#clip1_192_96)">
<path d="M143.463 6.35599C142.697 11.5408 131.094 25.1897 128.308 31.9318C125.522 38.674 123.356 65.0475 120.11 71.7896C116.864 78.5318 118.564 89.4205 121.81 90.6487C125.062 91.8768 130.007 93.7127 127.688 97.0869C125.369 100.461 118.404 98.9292 117.165 98.9292C117.165 98.9292 121.03 103.835 113.759 103.987C106.488 104.139 100.431 102.886 97.6134 101.493C97.1917 101.284 96.5719 101.132 95.8308 101.025C92.3613 100.518 86.234 101.012 85.135 101.24C83.7996 101.525 63.162 92.9467 63.162 92.9467C63.162 92.9467 69.66 73.7838 71.2062 71.4858C72.7525 69.1877 94.5721 47.1127 94.5721 47.1127C94.5721 47.1127 105.555 33.926 105.715 33.4702C105.875 33.0144 121.65 19.5174 121.65 19.5174L132.02 8.63502L140.218 6.36232H143.457L143.463 6.35599Z" fill="#E0D6C3"/>
<path d="M143.463 6.35599C143.463 8.03994 127.682 21.271 125.254 28.9691C122.826 36.6672 109.715 43.1624 107.772 50.8605C105.83 58.5586 101.217 85.2613 107.772 94.1622C112.628 101.379 109.715 102.101 108.501 102.823C107.287 103.544 94.1759 104.025 93.4475 95.6056C92.7192 87.1858 94.6615 71.7896 89.8056 69.384C89.8056 69.384 94.9682 89.5914 80.0044 91.7565C80.0044 91.7565 92.962 94.6433 90.0484 98.7329C87.1349 102.823 71.5002 102.607 68.5866 101.645C65.6731 100.683 47.2079 95.3967 50.3642 78.5571C55.7057 52.3355 68.5802 37.8763 88.1061 35.4707C96.1183 33.5335 104.686 22.4738 103.313 18.8654C101.939 15.2569 101.939 11.6484 105.581 11.6484C109.223 11.6484 117.484 1.30412 129.867 2.98808C134.723 2.80449 138.026 -0.620394 139.291 0.822995C140.556 2.26638 143.463 6.35599 143.463 6.35599Z" fill="#EFEAE1"/>
<path d="M143.323 7.00804C143.872 5.88119 144.109 4.48211 143.962 3.19066C143.815 1.89921 143.067 0.620414 141.923 0.139284C140.959 -0.265877 138.55 0.316543 137.572 0.607753C137.54 1.06356 137.86 4.06429 140.786 6.02679C141.7 6.64087 142.69 6.83079 143.323 7.00804Z" fill="#4D4D4D"/>
<path d="M121.259 8.18558C122.134 7.82957 122.63 7.02709 122.368 6.3932C122.105 5.75931 121.183 5.53404 120.308 5.89005C119.433 6.24606 118.937 7.04854 119.2 7.68243C119.462 8.31632 120.385 8.54159 121.259 8.18558Z" fill="#4D4D4D"/>
</g>
<defs>
<clipPath id="clip0_192_96">
<rect width="193" height="189" fill="white" transform="translate(0 81)"/>
</clipPath>
<clipPath id="clip1_192_96">
<rect width="94" height="104" fill="white" transform="translate(50)"/>
</clipPath>
</defs>
</svg>
