<svg width="77" height="80" viewBox="0 0 77 80" fill="none" xmlns="http://www.w3.org/2000/svg">
<g clip-path="url(#clip0_165_160)">
<path d="M72.5042 48.8784C70.2944 47.8774 67.5051 47.7806 64.8387 48.5174C62.2631 49.2277 59.582 49.3716 57.1996 48.3882C53.9829 47.0584 51.9283 43.759 51.8229 40.3832C51.7176 37.0104 53.4064 33.661 55.9879 31.2862C58.5986 28.888 61.9909 27.4496 64.8855 25.3772C67.83 23.2724 70.2885 20.4397 71.4827 17.1344C72.6798 13.8291 72.5129 10.0423 70.6544 7.10688C68.9275 4.37984 66.0124 2.66553 62.8484 1.4708L62.7665 1.44438C54.902 -0.478345 45.9194 -0.548796 36.7788 1.64399C12.3073 7.52078 -4.00413 27.567 0.857394 45.7874C5.60184 63.5586 28.5748 73.1194 52.4727 67.1722C60.4981 65.1731 67.4143 61.6477 73.0632 57.1887C76.3969 54.5585 76.1071 50.5135 72.5012 48.8784H72.5042Z" fill="#CAB094"/>
<path d="M47.4423 24.9615C52.5244 24.0315 55.8924 19.1447 54.9649 14.0465C54.0375 8.94822 49.1658 5.56917 44.0836 6.49913C39.0015 7.4291 35.6335 12.3159 36.561 17.4142C37.4884 22.5124 42.3602 25.8914 47.4423 24.9615Z" fill="#FF3434"/>
<path d="M27.4279 32.9088C31.1361 29.1896 31.2103 23.234 27.5934 19.6066C23.9766 15.9792 18.0384 16.0535 14.3302 19.7727C10.6219 23.4918 10.5477 29.4474 14.1646 33.0749C17.7814 36.7023 23.7196 36.628 27.4279 32.9088Z" fill="#FFEB34"/>
<path d="M42.4309 55.9059C45.2046 51.0876 43.5771 44.9371 38.7957 42.1684C34.0143 39.3998 27.8897 41.0614 25.1159 45.8798C22.3422 50.6981 23.9697 56.8486 28.7511 59.6173C33.5325 62.3859 39.6572 60.7243 42.4309 55.9059Z" fill="#3EA2FF"/>
<path d="M50.5177 79.8063L48.4367 78.7994C47.4913 78.3415 47.0757 77.2172 47.5001 76.2514L62.4447 42.0886C62.8896 41.0729 64.0838 40.6326 65.0789 41.114L69.5921 43.3009C70.5872 43.7823 70.9853 44.9976 70.4672 45.9751L53.0904 78.9609C52.6017 79.8914 51.4631 80.2671 50.5177 79.8092V79.8063Z" fill="#998161"/>
<path d="M72.001 39.5632L66.4 36.8513C65.7303 36.527 64.9254 36.8086 64.6022 37.4802L64.3477 38.0089C64.0244 38.6805 64.3052 39.4878 64.9748 39.812L70.5758 42.524C71.2454 42.8482 72.0503 42.5666 72.3736 41.895L72.6281 41.3663C72.9514 40.6947 72.6706 39.8874 72.001 39.5632Z" fill="#E6DED6"/>
<path d="M75.721 35.0464C76.2273 34.0307 76.558 32.7979 76.7688 31.7587C77.1317 29.9622 77.041 27.7283 76.678 25.8731C76.5083 25.0013 76.1805 24.1529 75.8556 23.3105C75.7473 23.0345 75.4253 22.6852 75.2117 22.8731C75.1502 22.9259 75.1297 23.011 75.1122 23.0903C74.7346 24.7048 74.1785 26.6393 72.516 27.1618C71.7492 27.4025 70.9209 27.5933 70.1833 27.8956C68.6409 28.5297 67.2857 31.2832 67.2272 32.9035C67.1189 34.6619 68.0584 36.3908 69.7355 37.204C71.6994 38.1551 74.0087 37.5298 75.2585 35.8302H75.2614C75.2761 35.8096 75.2907 35.7832 75.3053 35.7597C75.4458 35.5601 75.5775 35.3488 75.6858 35.1198C75.6975 35.0934 75.7063 35.067 75.718 35.0405L75.721 35.0464Z" fill="#FFBF6A"/>
</g>
<defs>
<clipPath id="clip0_165_160">
<rect width="77" height="80" fill="white"/>
</clipPath>
</defs>
</svg>
