<svg width="208" height="290" viewBox="0 0 208 290" fill="none" xmlns="http://www.w3.org/2000/svg">
<g clip-path="url(#clip0_281_150)">
<path d="M121.512 28.5541C125.331 11.809 133.433 7.26023 145.27 8.71028C143.641 4.64815 140.342 2.86539 137.237 1.85234C122.805 -2.87522 109.661 2.69655 104.55 4.80706C103.856 5.09509 97.6606 8.62089 96.997 8.7798C96.0312 9.00823 95.0902 8.3428 94.1988 7.75682C86.8837 2.94981 78.3207 2.52274 70.8076 6.58983C73.6652 8.05478 76.5724 9.55449 79.014 12.2063C81.4557 14.8581 84.0756 24.055 84.2044 28.5541H121.512Z" fill="#EFEAE1"/>
<path d="M103.941 16.0996C161.307 16.0996 207.881 62.7992 207.881 120.319V237.401C207.881 266.437 184.371 290.005 155.418 290.005H52.4631C23.5101 290 0 266.432 0 237.396V120.314C0 62.7992 46.5744 16.0996 103.941 16.0996Z" fill="#EFEAE1"/>
<path d="M103.941 153.099C84.7194 153.099 68.9899 168.871 68.9899 188.144V215.064C68.9899 218.064 71.4365 220.517 74.4279 220.517H133.453C136.445 220.517 138.891 218.064 138.891 215.064V188.144C138.891 168.871 123.162 153.099 103.941 153.099Z" fill="white"/>
<path d="M70.8075 114.792C70.8075 103.358 61.5634 94.0894 50.1601 94.0894C38.7568 94.0894 29.5126 103.358 29.5126 114.792V139.696C29.5126 151.13 38.7568 160.399 50.1601 160.399C61.5634 160.399 70.8075 151.13 70.8075 139.696V114.792Z" fill="white"/>
<path d="M180.181 114.792C180.181 103.358 170.937 94.0894 159.534 94.0894C148.13 94.0894 138.886 103.358 138.886 114.792V139.696C138.886 151.13 148.13 160.399 159.534 160.399C170.937 160.399 180.181 151.13 180.181 139.696V114.792Z" fill="white"/>
<path d="M66.8603 120.568C66.8603 114.435 61.9023 109.464 55.7863 109.464C49.6702 109.464 44.7122 114.435 44.7122 120.568V133.921C44.7122 140.054 49.6702 145.025 55.7863 145.025C61.9023 145.025 66.8603 140.054 66.8603 133.921V120.568Z" fill="#4D4D4D"/>
<path d="M164.996 120.568C164.996 114.435 160.038 109.464 153.922 109.464C147.806 109.464 142.848 114.435 142.848 120.568V133.921C142.848 140.054 147.806 145.025 153.922 145.025C160.038 145.025 164.996 140.054 164.996 133.921V120.568Z" fill="#4D4D4D"/>
<path d="M103.941 160.399C92.3415 160.399 82.8523 169.914 82.8523 181.544V185.671C82.8523 191.541 87.6415 196.343 93.4955 196.343H114.381C120.235 196.343 125.024 191.541 125.024 185.671V181.544C125.024 169.914 115.535 160.399 103.936 160.399H103.941Z" fill="#4D4D4D"/>
<path d="M194.212 14.7637C182.053 5.12982 164.249 7.22048 154.64 19.4118L151.228 23.7371C146.379 29.8899 147.429 38.9031 153.566 43.7647L175.456 61.1157C181.593 65.9773 190.582 64.9245 195.43 58.7717L198.843 54.4464C208.451 42.2551 206.366 24.4026 194.207 14.7687L194.212 14.7637Z" fill="#EFEAE1"/>
<path d="M13.6643 14.7637C25.823 5.12982 43.6276 7.22048 53.2357 19.4118L56.648 23.7371C61.4966 29.8899 60.4467 38.9031 54.3104 43.7647L32.4198 61.1157C26.2836 65.9773 17.2946 64.9245 12.4459 58.7717L9.0336 54.4464C-0.579429 42.2551 1.50562 24.3976 13.6643 14.7637Z" fill="#EFEAE1"/>
<path d="M103.941 242.014C119.729 242.014 132.646 236.343 132.646 220.512H75.2352C75.2352 236.343 88.1516 242.014 103.941 242.014Z" fill="#F5F5F5"/>
<path d="M41.5574 66.8662C30.5478 69.4435 23.0198 77.9054 24.8275 85.6672C25.293 87.6585 26.8927 89.193 29.0818 90.0471C32.0533 91.2042 36.0699 90.4593 38.7097 88.3587C40.2351 87.147 42.5777 85.7267 45.8167 84.9769C49.0111 84.237 51.7103 84.4604 53.5972 84.8676C56.9006 85.5778 60.8429 84.4604 62.9923 82.0917C63.0171 82.0669 63.0419 82.0371 63.0666 82.0122C64.597 80.294 65.3201 78.2431 64.8644 76.2865C63.0567 68.5248 52.5671 64.2839 41.5574 66.8662Z" fill="#E0D6C3"/>
<path d="M168.141 66.8662C179.151 69.4435 186.679 77.9054 184.871 85.6672C184.406 87.6585 182.806 89.193 180.617 90.0471C177.645 91.2042 173.629 90.4593 170.989 88.3587C169.464 87.147 167.121 85.7267 163.882 84.9769C160.688 84.237 157.988 84.4604 156.101 84.8676C152.798 85.5778 148.856 84.4604 146.706 82.0917C146.682 82.0669 146.657 82.0371 146.632 82.0122C145.102 80.294 144.379 78.2431 144.834 76.2865C146.642 68.5248 157.132 64.2839 168.141 66.8662Z" fill="#E0D6C3"/>
<path d="M58.2626 123.026C60.7763 123.026 62.814 120.983 62.814 118.462C62.814 115.942 60.7763 113.898 58.2626 113.898C55.7489 113.898 53.7111 115.942 53.7111 118.462C53.7111 120.983 55.7489 123.026 58.2626 123.026Z" fill="white"/>
<path d="M151.446 122.763C153.96 122.763 155.997 120.719 155.997 118.199C155.997 115.678 153.96 113.635 151.446 113.635C148.932 113.635 146.895 115.678 146.895 118.199C146.895 120.719 148.932 122.763 151.446 122.763Z" fill="white"/>
</g>
<defs>
<clipPath id="clip0_281_150">
<rect width="207.876" height="290" fill="white"/>
</clipPath>
</defs>
</svg>
