<svg width="206" height="206" viewBox="0 0 206 206" fill="none" xmlns="http://www.w3.org/2000/svg">
<g clip-path="url(#clip0_281_189)">
<path d="M206 0H0V206H206V0Z" fill="#EFEAE1"/>
<path d="M102.467 102.021C85.1093 102.021 70.9056 116.223 70.9056 133.582V157.826C70.9056 160.527 73.1159 162.735 75.8145 162.735H129.117C131.818 162.735 134.026 160.525 134.026 157.826V133.582C134.026 116.225 119.824 102.021 102.465 102.021H102.467Z" fill="white"/>
<path d="M72.5474 67.5263C72.5474 57.2278 64.1993 48.8792 53.9013 48.8792C43.6034 48.8792 35.2552 57.2278 35.2552 67.5263V89.9494C35.2552 100.248 43.6034 108.596 53.9013 108.596C64.1993 108.596 72.5474 100.248 72.5474 89.9494V67.5263Z" fill="white"/>
<path d="M171.318 67.5263C171.318 57.2278 162.97 48.8792 152.672 48.8792C142.374 48.8792 134.026 57.2278 134.026 67.5263V89.9494C134.026 100.248 142.374 108.596 152.672 108.596C162.97 108.596 171.318 100.248 171.318 89.9494V67.5263Z" fill="white"/>
<path d="M58.9823 62.7244H58.9802C53.4578 62.7244 48.981 67.2012 48.981 72.7236V84.7519C48.981 90.2744 53.4578 94.7512 58.9802 94.7512H58.9823C64.5047 94.7512 68.9815 90.2744 68.9815 84.7519V72.7236C68.9815 67.2012 64.5047 62.7244 58.9823 62.7244Z" fill="#4D4D4D"/>
<path d="M147.606 62.7244H147.603C142.081 62.7244 137.604 67.2012 137.604 72.7236V84.7519C137.604 90.2744 142.081 94.7512 147.603 94.7512H147.606C153.128 94.7512 157.605 90.2744 157.605 84.7519V72.7236C157.605 67.2012 153.128 62.7244 147.606 62.7244Z" fill="#4D4D4D"/>
<path d="M102.467 108.599C91.9938 108.599 83.4242 117.168 83.4242 127.641V131.359C83.4242 136.645 87.7502 140.971 93.0362 140.971H111.898C117.183 140.971 121.509 136.645 121.509 131.359V127.641C121.509 117.168 112.94 108.599 102.467 108.599Z" fill="#4D4D4D"/>
<path d="M102.467 182.103C116.724 182.103 128.39 176.995 128.39 162.737H76.5438C76.5438 176.995 88.2096 182.103 102.467 182.103Z" fill="#F5F5F5"/>
<path d="M46.132 24.359C36.1905 26.6826 29.3904 34.3026 31.024 41.2922C31.4442 43.0885 32.8883 44.4687 34.8659 45.2371C37.548 46.2794 41.1777 45.6079 43.5611 43.7168C44.9372 42.625 47.0549 41.3478 49.978 40.67C52.8641 40.0026 55.3011 40.2065 57.0026 40.5712C59.9876 41.2098 63.5431 40.2024 65.4878 38.0724C65.5104 38.0477 65.531 38.025 65.5537 38.0003C66.936 36.4512 67.5869 34.6075 67.1749 32.8441C65.5413 25.8545 56.0715 22.0353 46.1279 24.359H46.132Z" fill="#E0D6C3"/>
<path d="M160.441 24.359C170.383 26.6826 177.183 34.3026 175.549 41.2922C175.129 43.0885 173.685 44.4687 171.708 45.2371C169.025 46.2794 165.396 45.6079 163.012 43.7168C161.636 42.625 159.519 41.3478 156.595 40.67C153.709 40.0026 151.272 40.2065 149.571 40.5712C146.586 41.2098 143.03 40.2024 141.086 38.0724C141.063 38.0477 141.042 38.025 141.02 38.0003C139.637 36.4512 138.987 34.6075 139.399 32.8441C141.032 25.8545 150.502 22.0353 160.446 24.359H160.441Z" fill="#E0D6C3"/>
<path d="M61.2174 74.9423C63.4882 74.9423 65.3292 73.1014 65.3292 70.8305C65.3292 68.5596 63.4882 66.7188 61.2174 66.7188C58.9465 66.7188 57.1056 68.5596 57.1056 70.8305C57.1056 73.1014 58.9465 74.9423 61.2174 74.9423Z" fill="white"/>
<path d="M145.368 74.7053C147.639 74.7053 149.48 72.8644 149.48 70.5936C149.48 68.3227 147.639 66.4818 145.368 66.4818C143.098 66.4818 141.257 68.3227 141.257 70.5936C141.257 72.8644 143.098 74.7053 145.368 74.7053Z" fill="white"/>
</g>
<defs>
<clipPath id="clip0_281_189">
<rect width="206" height="206" rx="20" fill="white"/>
</clipPath>
</defs>
</svg>
