<svg width="210" height="273" viewBox="0 0 210 273" fill="none" xmlns="http://www.w3.org/2000/svg">
<g clip-path="url(#clip0_281_578)">
<path d="M205.399 269.93C202.253 272.522 198.002 273.497 193.938 272.738C170.327 268.337 141.102 264.713 107.542 264.537C71.7296 264.351 40.7081 268.142 16.0133 272.746C13.4989 273.216 10.8869 273.032 8.4998 272.133C6.61938 271.426 4.55471 270.227 2.86125 268.204C0.365767 265.223 -0.699081 261.24 0.476858 257.22L43.4989 110.207C45.1192 104.672 50.5925 100.824 56.8461 100.824H153.151C159.405 100.824 164.878 104.672 166.498 110.207L209.518 257.222C210.94 262.08 209.09 266.887 205.396 269.93H205.399Z" fill="#CD2B29"/>
<path d="M176.372 213.75L174.836 198.048L162.009 66.9134C161.927 66.0736 161.868 65.2311 161.854 64.3886C161.296 33.6916 135.927 8.75439 105 8.75439C74.0706 8.75439 48.7039 33.6943 48.1458 64.3886C48.1295 65.2311 48.0726 66.0736 47.9913 66.9134L35.1644 198.048L33.6281 213.75C31.6312 234.167 47.4359 252.159 68.0148 252.51C68.3291 252.516 68.6434 252.518 68.9577 252.518H141.037C141.354 252.518 141.668 252.518 141.98 252.51C162.561 252.159 178.366 234.167 176.367 213.75H176.372Z" fill="#EFEAE1"/>
<path d="M114.613 15.5267C116.703 6.42133 121.135 3.94786 127.611 4.73635C126.72 2.52751 124.915 1.5581 123.216 1.00724C115.321 -1.56344 108.13 1.46629 105.333 2.61392C104.954 2.77053 101.564 4.68774 101.201 4.77415C100.673 4.89837 100.158 4.53653 99.6704 4.21789C95.6684 1.604 90.9836 1.37178 86.8732 3.58332C88.4366 4.37991 90.0271 5.1954 91.3629 6.63736C92.6987 8.07932 94.1321 13.0803 94.2025 15.5267H114.613Z" fill="#EFEAE1"/>
<path d="M154.389 8.02795C147.738 2.78937 137.997 3.9262 132.74 10.5554L130.873 12.9074C128.221 16.2531 128.795 21.1541 132.152 23.7977L144.128 33.2325C147.486 35.8761 152.403 35.3036 155.056 31.958L156.923 29.606C162.179 22.9768 161.039 13.2692 154.387 8.03065L154.389 8.02795Z" fill="#EFEAE1"/>
<path d="M55.6105 8.02795C62.2625 2.78937 72.0032 3.9262 77.2597 10.5554L79.1266 12.9074C81.7793 16.2531 81.2048 21.1541 77.8477 23.7977L65.8716 33.2325C62.5144 35.8761 57.5966 35.3036 54.944 31.958L53.0771 29.606C47.8206 22.9768 48.9613 13.2692 55.6132 8.03065L55.6105 8.02795Z" fill="#EFEAE1"/>
<path d="M104.946 70.6155C96.2781 70.6155 89.1872 77.6822 89.1872 86.3204V98.3826C89.1872 99.7274 90.29 100.826 91.6393 100.826H118.252C119.602 100.826 120.705 99.7274 120.705 98.3826V86.3204C120.705 77.6822 113.614 70.6155 104.946 70.6155Z" fill="white"/>
<path d="M90.0109 53.4525C90.0109 48.3283 85.8427 44.1743 80.7009 44.1743C75.5591 44.1743 71.3909 48.3283 71.3909 53.4525V64.6102C71.3909 69.7344 75.5591 73.8884 80.7009 73.8884C85.8427 73.8884 90.0109 69.7344 90.0109 64.6102V53.4525Z" fill="white"/>
<path d="M139.324 53.4525C139.324 48.3283 135.156 44.1743 130.014 44.1743C124.873 44.1743 120.705 48.3283 120.705 53.4525V64.6102C120.705 69.7344 124.873 73.8884 130.014 73.8884C135.156 73.8884 139.324 69.7344 139.324 64.6102V53.4525Z" fill="white"/>
<path d="M88.228 56.0394C88.228 53.2909 85.9929 51.0627 83.2357 51.0627C80.4785 51.0627 78.2433 53.2909 78.2433 56.0394V62.0232C78.2433 64.7718 80.4785 66.9999 83.2357 66.9999C85.9929 66.9999 88.228 64.7718 88.228 62.0232V56.0394Z" fill="#4D4D4D"/>
<path d="M132.475 56.0394C132.475 53.2909 130.24 51.0627 127.482 51.0627C124.725 51.0627 122.49 53.2909 122.49 56.0394V62.0232C122.49 64.7718 124.725 66.9999 127.482 66.9999C130.24 66.9999 132.475 64.7718 132.475 62.0232V56.0394Z" fill="#4D4D4D"/>
<path d="M104.946 73.8882C99.7165 73.8882 95.4381 78.152 95.4381 83.3635V85.2132C95.4381 87.8433 97.5976 89.9955 100.237 89.9955H109.652C112.291 89.9955 114.451 87.8433 114.451 85.2132V83.3635C114.451 78.152 110.173 73.8882 104.943 73.8882H104.946Z" fill="#4D4D4D"/>
<path d="M104.946 110.461C112.064 110.461 117.889 107.92 117.889 100.824H92.0051C92.0051 107.917 97.8279 110.461 104.949 110.461H104.946Z" fill="#F5F5F5"/>
<path d="M76.8208 31.9743C71.857 33.13 68.4619 36.9212 69.2775 40.3992C69.4861 41.293 70.2069 41.9789 71.1958 42.3623C72.5344 42.8808 74.347 42.5459 75.5365 41.6062C76.2247 41.0635 77.2815 40.4262 78.7392 40.0914C80.1807 39.7592 81.3973 39.8619 82.2453 40.0428C83.7356 40.3614 85.5103 39.8592 86.4831 38.8006C86.4939 38.7898 86.5047 38.7763 86.5156 38.7655C87.2065 37.9959 87.5316 37.0778 87.3257 36.2003C86.5102 32.7223 81.782 30.8213 76.8181 31.9797L76.8208 31.9743Z" fill="#E0D6C3"/>
<path d="M133.892 31.9743C138.856 33.13 142.251 36.9212 141.435 40.3992C141.227 41.293 140.506 41.9789 139.517 42.3623C138.178 42.8808 136.366 42.5459 135.176 41.6062C134.488 41.0635 133.431 40.4262 131.973 40.0914C130.532 39.7592 129.315 39.8619 128.467 40.0428C126.977 40.3614 125.202 39.8592 124.23 38.8006C124.219 38.7898 124.208 38.7763 124.197 38.7655C123.506 37.9959 123.181 37.0778 123.387 36.2003C124.203 32.7223 128.931 30.8213 133.895 31.9797L133.892 31.9743Z" fill="#E0D6C3"/>
<path d="M84.3533 57.1437C85.4876 57.1437 86.4072 56.2273 86.4072 55.0969C86.4072 53.9664 85.4876 53.05 84.3533 53.05C83.219 53.05 82.2995 53.9664 82.2995 55.0969C82.2995 56.2273 83.219 57.1437 84.3533 57.1437Z" fill="white"/>
<path d="M126.367 57.025C127.502 57.025 128.421 56.1087 128.421 54.9782C128.421 53.8478 127.502 52.9314 126.367 52.9314C125.233 52.9314 124.314 53.8478 124.314 54.9782C124.314 56.1087 125.233 57.025 126.367 57.025Z" fill="white"/>
<path d="M176.372 213.75L174.836 198.048H35.1644L33.6281 213.75C31.6312 234.167 47.4359 252.159 68.0148 252.51C68.3291 252.516 68.6434 252.518 68.9577 252.518H141.037C141.354 252.518 141.668 252.518 141.98 252.51C162.561 252.159 178.366 234.167 176.367 213.75H176.372Z" fill="#C09F89"/>
<path d="M62.9778 198.048H35.1644L33.8719 211.26H62.9778V198.048Z" fill="#4D4D4D"/>
<path d="M145.188 211.26H176.128L174.836 198.048H145.188V211.26Z" fill="#4D4D4D"/>
<path d="M138.972 198.048H69.1962V211.26H138.972V198.048Z" fill="#4D4D4D"/>
<path d="M41.8109 130.084L35.1644 198.048H174.836L168.189 130.084H41.8109Z" fill="#93D3C6"/>
<path d="M98.3616 127.508C81.8009 123.576 60.4904 112.492 50.5058 106.567C47.2056 104.61 43.4312 105.86 41.9409 109.4L37.8414 119.148C36.2157 123.015 37.9606 128.037 41.6293 129.987C53.7897 136.443 82.2426 133.659 99.3669 131.129C98.8764 130.076 98.8656 128.55 98.3616 127.505V127.508Z" fill="#EE2D2B"/>
<path d="M111.638 127.508C128.199 123.576 149.51 112.492 159.494 106.567C162.794 104.61 166.569 105.86 168.059 109.4L172.159 119.148C173.784 123.015 172.039 128.037 168.371 129.987C156.21 136.443 127.757 133.659 110.633 131.129C111.124 130.076 111.134 128.55 111.638 127.505V127.508Z" fill="#EE2D2B"/>
<path d="M104.084 138.444C109.435 138.444 113.773 134.271 113.773 129.123C113.773 123.975 109.435 119.802 104.084 119.802C98.7329 119.802 94.3948 123.975 94.3948 129.123C94.3948 134.271 98.7329 138.444 104.084 138.444Z" fill="#CD2B29"/>
<path d="M83.0527 47.4551L64.5682 77.9846C65.5084 78.1737 66.4812 78.2736 67.4783 78.2736H70.1797L88.8376 47.4524H83.05L83.0527 47.4551Z" fill="#101111"/>
<path d="M145.838 47.6711L127.738 77.5661C129.426 78.0252 131.201 78.2736 133.036 78.2736H133.098L150.591 49.3804C149.144 48.5514 147.542 47.9655 145.838 47.6711Z" fill="#101111"/>
<path d="M118.694 47.4551C117.605 47.4551 116.589 47.7602 115.722 48.2895C112.877 50.0285 109.666 51.0816 106.328 51.0816H104.493C101.155 51.0816 97.9443 50.0285 95.0993 48.2895C94.4138 47.8709 93.6335 47.5955 92.7962 47.4983L74.1627 78.2763H77.7881C86.651 78.2763 94.1672 72.5436 96.8172 64.5966C98.0365 60.9377 101.407 58.4237 105.274 58.4237H105.555C109.425 58.4237 112.793 60.9377 114.012 64.5966C115.331 68.5552 117.859 71.9657 121.16 74.3879L137.466 47.4524H118.697L118.694 47.4551Z" fill="#101111"/>
<path d="M161.792 52.1672H154.078C153.839 51.908 153.596 51.6541 153.338 51.4138L152.877 52.1753C151.674 52.2509 150.715 53.2527 150.715 54.4679V55.7478L137.078 78.2737H143.343C151.393 78.2737 157.92 71.7687 157.92 63.7461V61.9801C157.92 60.7514 157.763 59.5606 157.476 58.4211H161.795C163.065 58.4211 164.103 57.3869 164.103 56.1204V54.4679C164.103 53.2014 163.065 52.1672 161.795 52.1672H161.792Z" fill="#101111"/>
<path d="M67.4783 47.4548C63.2243 47.4548 59.3957 49.2721 56.7323 52.1695H48.2081C46.9373 52.1695 45.8995 53.2038 45.8995 54.4702V56.1228C45.8995 57.3892 46.9373 58.4234 48.2081 58.4234H53.3453C53.0581 59.563 52.9037 60.7538 52.9037 61.9824V63.7484C52.9037 68.1634 54.8844 72.1166 58.003 74.7818L74.5475 47.4548H67.481H67.4783Z" fill="#101111"/>
<path d="M74.5447 47.4551L58.0003 74.7821C59.8482 76.3591 62.0917 77.4851 64.5682 77.9873L83.0527 47.4578H74.5475L74.5447 47.4551Z" fill="#F5F5F5"/>
<path d="M92.127 47.4551H88.8403L70.1824 78.2763H74.1627L92.7962 47.4983C92.5768 47.474 92.3546 47.4578 92.1297 47.4578L92.127 47.4551Z" fill="#F5F5F5"/>
<path d="M143.34 47.4551H137.46L121.154 74.3905C123.108 75.8244 125.332 76.9126 127.738 77.5688L145.838 47.6738C145.025 47.5334 144.193 47.4578 143.343 47.4578L143.34 47.4551Z" fill="#F5F5F5"/>
<path d="M150.591 49.3804L133.098 78.2735H137.078L153.341 51.4137C152.512 50.6333 151.59 49.9501 150.593 49.3804H150.591Z" fill="#F5F5F5"/>
</g>
<defs>
<clipPath id="clip0_281_578">
<rect width="210" height="273" fill="white"/>
</clipPath>
</defs>
</svg>
