<svg width="144" height="255" viewBox="0 0 144 255" fill="none" xmlns="http://www.w3.org/2000/svg">
<g clip-path="url(#clip0_281_622)">
<path d="M143.828 215.851L142.282 199.994L129.373 67.5712C129.291 66.7231 129.231 65.8723 129.218 65.0216C128.656 34.0229 103.124 8.84058 72 8.84058C40.8729 8.84058 15.344 34.0256 14.7823 65.0216C14.7659 65.8723 14.7087 66.7231 14.6269 67.5712L1.7179 199.994L0.171773 215.851C-1.83792 236.469 14.0678 254.638 34.7783 254.992C35.0947 254.997 35.411 255 35.7273 255H108.27C108.589 255 108.905 255 109.219 254.992C129.932 254.638 145.838 236.469 143.825 215.851H143.828Z" fill="#EFEAE1"/>
<path d="M81.6749 15.6793C83.7773 6.48444 88.2384 3.98666 94.7556 4.78289C93.8585 2.55234 92.0424 1.57341 90.3327 1.01713C82.3866 -1.57882 75.1495 1.48069 72.3354 2.6396C71.9536 2.79776 68.5423 4.73381 68.1769 4.82107C67.6452 4.9465 67.1271 4.58111 66.6362 4.25934C62.6087 1.61976 57.8939 1.38525 53.7573 3.61853C55.3307 4.42295 56.9314 5.24645 58.2757 6.70258C59.62 8.15871 61.0626 13.2088 61.1334 15.6793H81.6749Z" fill="#EFEAE1"/>
<path d="M121.705 8.10694C115.011 2.81688 105.208 3.96487 99.9176 10.6593L98.0388 13.0343C95.3692 16.4129 95.9473 21.3621 99.3259 24.0317L111.379 33.5592C114.757 36.2288 119.706 35.6507 122.376 32.2721L124.255 29.8971C129.545 23.2027 128.397 13.3997 121.702 8.10966L121.705 8.10694Z" fill="#EFEAE1"/>
<path d="M22.2948 8.10694C28.9892 2.81688 38.7923 3.96487 44.0824 10.6593L45.9612 13.0343C48.6308 16.4129 48.0527 21.3621 44.6741 24.0317L32.6214 33.5592C29.2428 36.2288 24.2936 35.6507 21.624 32.2721L19.7452 29.8971C14.4551 23.2027 15.6031 13.3997 22.2975 8.10966L22.2948 8.10694Z" fill="#EFEAE1"/>
<path d="M71.9454 71.3096C63.2222 71.3096 56.086 78.4457 56.086 87.1688V99.3496C56.086 100.708 57.1959 101.817 58.5538 101.817H85.3371C86.695 101.817 87.8049 100.708 87.8049 99.3496V87.1688C87.8049 78.4457 80.6687 71.3096 71.9454 71.3096Z" fill="white"/>
<path d="M56.915 53.9778C56.915 48.8032 52.7201 44.6084 47.5455 44.6084C42.3709 44.6084 38.176 48.8032 38.176 53.9778V65.2451C38.176 70.4197 42.3709 74.6145 47.5455 74.6145C52.7201 74.6145 56.915 70.4197 56.915 65.2451V53.9778Z" fill="white"/>
<path d="M106.544 53.9778C106.544 48.8032 102.349 44.6084 97.1744 44.6084C91.9997 44.6084 87.8049 48.8032 87.8049 53.9778V65.2451C87.8049 70.4197 91.9997 74.6145 97.1744 74.6145C102.349 74.6145 106.544 70.4197 106.544 65.2451V53.9778Z" fill="white"/>
<path d="M55.1207 56.5903C55.1207 53.8147 52.8713 51.5647 50.0965 51.5647C47.3217 51.5647 45.0723 53.8147 45.0723 56.5903V62.6329C45.0723 65.4085 47.3217 67.6585 50.0965 67.6585C52.8713 67.6585 55.1207 65.4085 55.1207 62.6329V56.5903Z" fill="#4D4D4D"/>
<path d="M99.6503 56.5903C99.6503 53.8147 97.4009 51.5647 94.6261 51.5647C91.8513 51.5647 89.6019 53.8147 89.6019 56.5903V62.6329C89.6019 65.4085 91.8513 67.6585 94.6261 67.6585C97.4009 67.6585 99.6503 65.4085 99.6503 62.6329V56.5903Z" fill="#4D4D4D"/>
<path d="M71.9455 74.6145C66.6826 74.6145 62.3769 78.9202 62.3769 84.183V86.0508C62.3769 88.7068 64.5502 90.8801 67.2062 90.8801H76.682C79.338 90.8801 81.5113 88.7068 81.5113 86.0508V84.183C81.5113 78.9202 77.2056 74.6145 71.9427 74.6145H71.9455Z" fill="#4D4D4D"/>
<path d="M71.9454 111.547C79.1089 111.547 84.9717 108.981 84.9717 101.815H58.922C58.922 108.978 64.782 111.547 71.9482 111.547H71.9454Z" fill="#F5F5F5"/>
<path d="M43.6407 32.2886C38.645 33.4557 35.2283 37.2842 36.0491 40.7963C36.259 41.6989 36.9844 42.3915 37.9797 42.7787C39.3268 43.3023 41.151 42.9642 42.3481 42.0152C43.0407 41.4671 44.1042 40.8236 45.5713 40.4855C47.022 40.1501 48.2463 40.2537 49.0998 40.4364C50.5996 40.7582 52.3857 40.251 53.3646 39.182C53.3755 39.1711 53.3864 39.1575 53.3974 39.1466C54.0927 38.3694 54.4199 37.4423 54.2127 36.5561C53.3919 33.0439 48.6335 31.1242 43.6379 32.2941L43.6407 32.2886Z" fill="#E0D6C3"/>
<path d="M101.076 32.2886C106.072 33.4557 109.489 37.2842 108.668 40.7963C108.458 41.6989 107.733 42.3915 106.737 42.7787C105.39 43.3023 103.566 42.9642 102.369 42.0152C101.676 41.4671 100.613 40.8236 99.1459 40.4855C97.6952 40.1501 96.4708 40.2537 95.6173 40.4364C94.1175 40.7582 92.3315 40.251 91.3525 39.182C91.3416 39.1711 91.3307 39.1575 91.3198 39.1466C90.6244 38.3694 90.2972 37.4423 90.5045 36.5561C91.3252 33.0439 96.0836 31.1242 101.079 32.2941L101.076 32.2886Z" fill="#E0D6C3"/>
<path d="M51.2213 57.7054C52.3629 57.7054 53.2883 56.78 53.2883 55.6385C53.2883 54.4969 52.3629 53.5715 51.2213 53.5715C50.0798 53.5715 49.1544 54.4969 49.1544 55.6385C49.1544 56.78 50.0798 57.7054 51.2213 57.7054Z" fill="white"/>
<path d="M93.504 57.5855C94.6455 57.5855 95.571 56.6601 95.571 55.5186C95.571 54.3771 94.6455 53.4517 93.504 53.4517C92.3624 53.4517 91.437 54.3771 91.437 55.5186C91.437 56.6601 92.3624 57.5855 93.504 57.5855Z" fill="white"/>
<path d="M143.828 215.851L142.282 199.994H1.7179L0.171773 215.851C-1.83792 236.469 14.0678 254.637 34.7783 254.992C35.0947 254.997 35.411 255 35.7273 255H108.27C108.589 255 108.905 255 109.219 254.992C129.932 254.637 145.838 236.469 143.825 215.851H143.828Z" fill="#C09F89"/>
<path d="M29.7091 199.994H1.71792L0.417206 213.337H29.7091V199.994Z" fill="#4D4D4D"/>
<path d="M112.445 213.337H143.583L142.282 199.994H112.445V213.337Z" fill="#4D4D4D"/>
<path d="M106.189 199.994H35.9673V213.337H106.189V199.994Z" fill="#4D4D4D"/>
<path d="M8.40691 131.363L1.71793 199.994H142.282L135.593 131.363H8.40691Z" fill="#93D3C6"/>
<path d="M49.9124 47.9214L31.3098 78.751C32.256 78.9419 33.2349 79.0428 34.2384 79.0428H36.9571L55.7343 47.9187H49.9097L49.9124 47.9214Z" fill="#101111"/>
<path d="M113.099 48.1396L94.8838 78.3284C96.5826 78.792 98.3687 79.0429 100.215 79.0429H100.278L117.882 49.8657C116.426 49.0286 114.814 48.4369 113.099 48.1396Z" fill="#101111"/>
<path d="M85.7815 47.9214C84.6853 47.9214 83.6628 48.2296 82.7902 48.764C79.927 50.5201 76.6957 51.5836 73.3362 51.5836H71.4901C68.1306 51.5836 64.8993 50.5201 62.0361 48.764C61.3462 48.3414 60.5608 48.0632 59.7182 47.9651L40.9656 79.0455H44.6141C53.5337 79.0455 61.098 73.2565 63.7649 65.2314C64.992 61.5365 68.3842 58.9978 72.2754 58.9978H72.559C76.453 58.9978 79.8424 61.5365 81.0695 65.2314C82.3975 69.2289 84.9417 72.6729 88.263 75.1189L104.673 47.9187H85.7843L85.7815 47.9214Z" fill="#101111"/>
<path d="M129.155 52.6797H121.392C121.152 52.418 120.906 52.1616 120.647 51.9189L120.184 52.6879C118.973 52.7643 118.008 53.7759 118.008 55.003V56.2955L104.283 79.0428H110.588C118.689 79.0428 125.258 72.4738 125.258 64.3724V62.5891C125.258 61.3483 125.1 60.1458 124.811 58.9951H129.158C130.437 58.9951 131.481 57.9507 131.481 56.6718V55.003C131.481 53.7241 130.437 52.6797 129.158 52.6797H129.155Z" fill="#101111"/>
<path d="M34.2384 47.9211C29.9573 47.9211 26.1042 49.7563 23.4237 52.6822H14.845C13.5661 52.6822 12.5217 53.7266 12.5217 55.0055V56.6743C12.5217 57.9532 13.5661 58.9975 14.845 58.9975H20.0151C19.7261 60.1483 19.5707 61.3508 19.5707 62.5915V64.3749C19.5707 68.8332 21.564 72.8253 24.7026 75.5167L41.3528 47.9211H34.2412H34.2384Z" fill="#101111"/>
<path d="M41.3501 47.9214L24.6999 75.517C26.5596 77.1094 28.8174 78.2465 31.3098 78.7537L49.9124 47.9241H41.3528L41.3501 47.9214Z" fill="#F5F5F5"/>
<path d="M59.0447 47.9214H55.737L36.9598 79.0455H40.9656L59.7182 47.965C59.4973 47.9405 59.2737 47.9241 59.0474 47.9241L59.0447 47.9214Z" fill="#F5F5F5"/>
<path d="M110.585 47.9214H104.668L88.2575 75.1216C90.2236 76.5695 92.4623 77.6684 94.8838 78.3311L113.099 48.1423C112.281 48.0005 111.444 47.9241 110.588 47.9241L110.585 47.9214Z" fill="#F5F5F5"/>
<path d="M117.882 49.8657L100.278 79.0429H104.283L120.65 51.919C119.815 51.131 118.888 50.4411 117.885 49.8657H117.882Z" fill="#F5F5F5"/>
</g>
<defs>
<clipPath id="clip0_281_622">
<rect width="144" height="255" fill="white"/>
</clipPath>
</defs>
</svg>
