<svg width="147" height="261" viewBox="0 0 147 261" fill="none" xmlns="http://www.w3.org/2000/svg">
<g clip-path="url(#clip0_281_661)">
<path d="M146.825 220.93L145.246 204.7L132.068 69.1611C131.985 68.2931 131.924 67.4223 131.91 66.5515C131.336 34.8234 105.273 9.04858 73.5 9.04858C41.7244 9.04858 15.6637 34.8262 15.0903 66.5515C15.0736 67.4223 15.0151 68.2931 14.9316 69.1611L1.75371 204.7L0.17537 220.93C-1.87619 242.033 14.3609 260.629 35.5029 260.992C35.8258 260.997 36.1487 261 36.4716 261H110.526C110.851 261 111.174 261 111.494 260.992C132.639 260.629 148.876 242.033 146.822 220.93H146.825Z" fill="#EFEAE1"/>
<path d="M83.3764 16.0482C85.5227 6.63699 90.0767 4.08044 96.7297 4.89541C95.8139 2.61238 93.96 1.61041 92.2146 1.04105C84.103 -1.61598 76.7151 1.51552 73.8424 2.70169C73.4527 2.86357 69.9703 4.84517 69.5973 4.93449C69.0545 5.06287 68.5256 4.68888 68.0245 4.35954C63.913 1.65786 59.1001 1.41783 54.8773 3.70366C56.4834 4.527 58.1174 5.36988 59.4898 6.86027C60.8621 8.35067 62.3347 13.5196 62.4071 16.0482H83.3764Z" fill="#EFEAE1"/>
<path d="M124.241 8.29771C117.407 2.88318 107.4 4.05819 101.999 10.9101L100.081 13.341C97.356 16.7991 97.9462 21.8647 101.395 24.5971L113.699 34.3489C117.148 37.0813 122.2 36.4896 124.926 33.0315L126.843 30.6006C132.244 23.7487 131.072 13.715 124.238 8.3005L124.241 8.29771Z" fill="#EFEAE1"/>
<path d="M22.7593 8.29771C29.5932 2.88318 39.6005 4.05819 45.0008 10.9101L46.9187 13.341C49.644 16.7991 49.0538 21.8647 45.6049 24.5971L33.301 34.3489C29.8521 37.0813 24.7997 36.4896 22.0745 33.0315L20.1565 30.6006C14.7562 23.7487 15.9282 13.715 22.7621 8.3005L22.7593 8.29771Z" fill="#EFEAE1"/>
<path d="M73.4443 72.9873C64.5394 72.9873 57.2545 80.2913 57.2545 89.2197V101.687C57.2545 103.077 58.3875 104.213 59.7737 104.213H87.1149C88.5012 104.213 89.6341 103.077 89.6341 101.687V89.2197C89.6341 80.2913 82.3493 72.9873 73.4443 72.9873Z" fill="white"/>
<path d="M58.1007 55.2478C58.1007 49.9515 53.8185 45.658 48.5361 45.658C43.2536 45.658 38.9714 49.9515 38.9714 55.2478V66.7802C38.9714 72.0766 43.2536 76.3701 48.5361 76.3701C53.8185 76.3701 58.1007 72.0766 58.1007 66.7802V55.2478Z" fill="white"/>
<path d="M108.764 55.2478C108.764 49.9515 104.481 45.658 99.1988 45.658C93.9164 45.658 89.6341 49.9515 89.6341 55.2478V66.7802C89.6341 72.0766 93.9164 76.3701 99.1988 76.3701C104.481 76.3701 108.764 72.0766 108.764 66.7802V55.2478Z" fill="white"/>
<path d="M56.2691 57.9216C56.2691 55.0808 53.9728 52.7778 51.1402 52.7778C48.3076 52.7778 46.0113 55.0808 46.0113 57.9216V64.1065C46.0113 66.9473 48.3076 69.2503 51.1402 69.2503C53.9728 69.2503 56.2691 66.9473 56.2691 64.1065V57.9216Z" fill="#4D4D4D"/>
<path d="M101.726 57.9216C101.726 55.0808 99.4301 52.7778 96.5975 52.7778C93.7649 52.7778 91.4686 55.0808 91.4686 57.9216V64.1065C91.4686 66.9473 93.7649 69.2503 96.5975 69.2503C99.4301 69.2503 101.726 66.9473 101.726 64.1065V57.9216Z" fill="#4D4D4D"/>
<path d="M73.4443 76.3701C68.0718 76.3701 63.6764 80.7771 63.6764 86.1637V88.0756C63.6764 90.794 65.895 93.0184 68.6063 93.0184H78.2796C80.9909 93.0184 83.2094 90.794 83.2094 88.0756V86.1637C83.2094 80.7771 78.814 76.3701 73.4415 76.3701H73.4443Z" fill="#4D4D4D"/>
<path d="M73.4443 114.171C80.757 114.171 86.7419 111.545 86.7419 104.21H60.1495C60.1495 111.542 66.1316 114.171 73.4471 114.171H73.4443Z" fill="#F5F5F5"/>
<path d="M44.5498 33.0483C39.4502 34.2428 35.9622 38.1614 36.8001 41.7562C37.0144 42.68 37.7549 43.3889 38.7709 43.7852C40.1461 44.3211 42.0084 43.975 43.2304 43.0037C43.9374 42.4428 45.0231 41.7841 46.5207 41.438C48.0016 41.0947 49.2515 41.2008 50.1227 41.3878C51.6538 41.7171 53.4771 41.198 54.4764 40.1039C54.4875 40.0927 54.4987 40.0788 54.5098 40.0676C55.2196 39.2722 55.5537 38.3232 55.3421 37.4162C54.5042 33.8214 49.6467 31.8565 44.5471 33.0538L44.5498 33.0483Z" fill="#E0D6C3"/>
<path d="M103.182 33.0483C108.282 34.2428 111.77 38.1614 110.932 41.7562C110.718 42.68 109.977 43.3889 108.961 43.7852C107.586 44.3211 105.724 43.975 104.502 43.0037C103.795 42.4428 102.709 41.7841 101.211 41.438C99.7305 41.0947 98.4806 41.2008 97.6093 41.3878C96.0783 41.7171 94.255 41.198 93.2557 40.1039C93.2446 40.0927 93.2334 40.0788 93.2223 40.0676C92.5125 39.2722 92.1784 38.3232 92.39 37.4162C93.2279 33.8214 98.0854 31.8565 103.185 33.0538L103.182 33.0483Z" fill="#E0D6C3"/>
<path d="M52.2884 59.0632C53.4538 59.0632 54.3985 58.116 54.3985 56.9476C54.3985 55.7792 53.4538 54.832 52.2884 54.832C51.1231 54.832 50.1784 55.7792 50.1784 56.9476C50.1784 58.116 51.1231 59.0632 52.2884 59.0632Z" fill="white"/>
<path d="M95.452 58.9404C96.6173 58.9404 97.562 57.9932 97.562 56.8248C97.562 55.6564 96.6173 54.7092 95.452 54.7092C94.2867 54.7092 93.342 55.6564 93.342 56.8248C93.342 57.9932 94.2867 58.9404 95.452 58.9404Z" fill="white"/>
<path d="M146.825 220.93L145.246 204.7H1.75371L0.17537 220.93C-1.87619 242.033 14.3609 260.629 35.5029 260.992C35.8258 260.997 36.1487 261 36.4716 261H110.526C110.851 261 111.174 261 111.494 260.992C132.639 260.629 148.876 242.033 146.822 220.93H146.825Z" fill="#C09F89"/>
<path d="M30.3281 204.7H1.75371L0.425901 218.357H30.3281V204.7Z" fill="#4D4D4D"/>
<path d="M114.787 218.357H146.574L145.246 204.7H114.787V218.357Z" fill="#4D4D4D"/>
<path d="M108.402 204.7H36.7166V218.357H108.402V204.7Z" fill="#4D4D4D"/>
<path d="M8.58205 134.454L1.75371 204.7H145.246L138.418 134.454H8.58205Z" fill="#93D3C6"/>
</g>
<defs>
<clipPath id="clip0_281_661">
<rect width="147" height="261" fill="white"/>
</clipPath>
</defs>
</svg>
