<svg width="137" height="243" viewBox="0 0 137 243" fill="none" xmlns="http://www.w3.org/2000/svg">
<g clip-path="url(#clip0_281_741)">
<path d="M136.837 205.693L135.366 190.583L123.084 64.3911C123.006 63.583 122.949 62.7722 122.936 61.9615C122.402 32.4216 98.1114 8.42432 68.5 8.42432C38.886 8.42432 14.5981 32.4242 14.0637 61.9615C14.0482 62.7722 13.9937 63.583 13.9158 64.3911L1.63441 190.583L0.163438 205.693C-1.74856 225.34 13.384 242.654 33.0878 242.992C33.3887 242.997 33.6896 243 33.9906 243H103.007C103.31 243 103.611 243 103.91 242.992C123.616 242.654 138.749 225.34 136.834 205.693H136.837Z" fill="#EFEAE1"/>
<path d="M77.7046 14.9415C79.7048 6.17932 83.9491 3.79908 90.1495 4.55785C89.2959 2.43226 87.5681 1.4994 85.9415 0.969301C78.3817 -1.50448 71.4964 1.41105 68.8191 2.51542C68.4559 2.66613 65.2104 4.51107 64.8628 4.59423C64.3569 4.71376 63.864 4.36556 63.397 4.05893C59.5652 1.54357 55.0797 1.3201 51.1441 3.44828C52.641 4.21484 54.1639 4.9996 55.4429 6.3872C56.7219 7.77481 58.0942 12.5873 58.1617 14.9415H77.7046Z" fill="#EFEAE1"/>
<path d="M115.789 7.72538C109.42 2.68427 100.093 3.77824 95.0605 10.1576L93.273 12.4209C90.7332 15.6405 91.2832 20.3568 94.4975 22.9007L105.964 31.9799C109.179 34.5239 113.887 33.973 116.427 30.7534L118.215 28.4901C123.248 22.1108 122.155 12.7691 115.786 7.72798L115.789 7.72538Z" fill="#EFEAE1"/>
<path d="M21.211 7.72538C27.58 2.68427 36.9066 3.77824 41.9395 10.1576L43.727 12.4209C46.2668 15.6405 45.7168 20.3568 42.5025 22.9007L31.0356 31.9799C27.8213 34.5239 23.1126 33.973 20.5728 30.7534L18.7853 28.4901C13.7524 22.1108 14.8446 12.7691 21.2136 7.72798L21.211 7.72538Z" fill="#EFEAE1"/>
<path d="M68.4481 67.9539C60.1489 67.9539 53.3596 74.7542 53.3596 83.0668V94.6744C53.3596 95.9684 54.4155 97.026 55.7075 97.026H81.1888C82.4807 97.026 83.5366 95.9684 83.5366 94.6744V83.0668C83.5366 74.7542 76.7473 67.9539 68.4481 67.9539Z" fill="white"/>
<path d="M54.1483 51.4375C54.1483 46.5065 50.1574 42.509 45.2343 42.509C40.3112 42.509 36.3203 46.5065 36.3203 51.4375V62.1746C36.3203 67.1057 40.3112 71.1031 45.2343 71.1031C50.1574 71.1031 54.1483 67.1057 54.1483 62.1746V51.4375Z" fill="white"/>
<path d="M101.365 51.4375C101.365 46.5065 97.3737 42.509 92.4506 42.509C87.5275 42.509 83.5366 46.5065 83.5366 51.4375V62.1746C83.5366 67.1057 87.5275 71.1031 92.4506 71.1031C97.3737 71.1031 101.365 67.1057 101.365 62.1746V51.4375Z" fill="white"/>
<path d="M52.4413 53.927C52.4413 51.2821 50.3012 49.1379 47.6613 49.1379C45.0213 49.1379 42.8813 51.2821 42.8813 53.927V59.6853C42.8813 62.3302 45.0213 64.4744 47.6613 64.4744C50.3012 64.4744 52.4413 62.3302 52.4413 59.6853V53.927Z" fill="#4D4D4D"/>
<path d="M94.8062 53.927C94.8062 51.2821 92.6661 49.1379 90.0262 49.1379C87.3863 49.1379 85.2462 51.2821 85.2462 53.927V59.6853C85.2462 62.3302 87.3863 64.4744 90.0262 64.4744C92.6661 64.4744 94.8062 62.3302 94.8062 59.6853V53.927Z" fill="#4D4D4D"/>
<path d="M68.4481 71.1033C63.4411 71.1033 59.3447 75.2063 59.3447 80.2215V82.0014C59.3447 84.5324 61.4124 86.6034 63.9392 86.6034H72.9544C75.4813 86.6034 77.5489 84.5324 77.5489 82.0014V80.2215C77.5489 75.2063 73.4525 71.1033 68.4455 71.1033H68.4481Z" fill="#4D4D4D"/>
<path d="M68.4481 106.298C75.2633 106.298 80.8411 103.852 80.8411 97.0234H56.0577C56.0577 103.85 61.6329 106.298 68.4507 106.298H68.4481Z" fill="#F5F5F5"/>
<path d="M41.5192 30.7691C36.7665 31.8812 33.5158 35.5295 34.2967 38.8764C34.4965 39.7365 35.1865 40.3965 36.1335 40.7655C37.415 41.2645 39.1506 40.9422 40.2895 40.038C40.9485 39.5157 41.9603 38.9024 43.356 38.5802C44.7362 38.2606 45.901 38.3593 46.713 38.5334C48.1399 38.84 49.8392 38.3567 50.7705 37.3381C50.7809 37.3277 50.7913 37.3147 50.8017 37.3043C51.4632 36.5637 51.7745 35.6802 51.5774 34.8357C50.7965 31.4888 46.2694 29.6595 41.5166 30.7743L41.5192 30.7691Z" fill="#E0D6C3"/>
<path d="M96.1631 30.7691C100.916 31.8812 104.166 35.5295 103.386 38.8764C103.186 39.7365 102.496 40.3965 101.549 40.7655C100.267 41.2645 98.5317 40.9422 97.3928 40.038C96.7338 39.5157 95.722 38.9024 94.3263 38.5802C92.9461 38.2606 91.7813 38.3593 90.9693 38.5334C89.5424 38.84 87.8431 38.3567 86.9118 37.3381C86.9014 37.3277 86.891 37.3147 86.8806 37.3043C86.2191 36.5637 85.9078 35.6802 86.1049 34.8357C86.8858 31.4888 91.4129 29.6595 96.1656 30.7743L96.1631 30.7691Z" fill="#E0D6C3"/>
<path d="M48.7314 54.9899C49.8175 54.9899 50.6979 54.108 50.6979 53.0202C50.6979 51.9324 49.8175 51.0505 48.7314 51.0505C47.6453 51.0505 46.7649 51.9324 46.7649 53.0202C46.7649 54.108 47.6453 54.9899 48.7314 54.9899Z" fill="white"/>
<path d="M88.9587 54.8754C90.0447 54.8754 90.9252 53.9935 90.9252 52.9057C90.9252 51.8179 90.0447 50.936 88.9587 50.936C87.8726 50.936 86.9922 51.8179 86.9922 52.9057C86.9922 53.9935 87.8726 54.8754 88.9587 54.8754Z" fill="white"/>
<path d="M136.837 205.693L135.366 190.583H1.63441L0.163438 205.693C-1.74856 225.34 13.384 242.654 33.0878 242.992C33.3887 242.997 33.6896 243 33.9906 243H103.007C103.31 243 103.611 243 103.91 242.992C123.616 242.654 138.749 225.34 136.834 205.693H136.837Z" fill="#C09F89"/>
<path d="M28.2649 190.583H1.63441L0.396927 203.297H28.2649V190.583Z" fill="#4D4D4D"/>
<path d="M106.979 203.297H136.603L135.366 190.583H106.979V203.297Z" fill="#4D4D4D"/>
<path d="M101.027 190.583H34.2189V203.297H101.027V190.583Z" fill="#4D4D4D"/>
</g>
<defs>
<clipPath id="clip0_281_741">
<rect width="137" height="243" fill="white"/>
</clipPath>
</defs>
</svg>
