<svg width="131" height="233" viewBox="0 0 131 233" fill="none" xmlns="http://www.w3.org/2000/svg">
<g clip-path="url(#clip0_281_795)">
<path d="M130.844 197.229L129.437 182.74L117.694 61.7415C117.619 60.9666 117.565 60.1893 117.552 59.4119C117.041 31.0876 93.8145 8.07788 65.5 8.07788C37.183 8.07788 13.9588 31.0901 13.4478 59.4119C13.4329 60.1893 13.3808 60.9666 13.3064 61.7415L1.56284 182.74L0.156294 197.229C-1.67197 216.067 12.7979 232.669 31.6387 232.993C31.9264 232.998 32.2142 233 32.5019 233H98.4956C98.7858 233 99.0736 233 99.3589 232.993C118.202 232.669 132.672 216.067 130.841 197.229H130.844Z" fill="#EFEAE1"/>
<path d="M74.3015 14.3267C76.2141 5.92506 80.2725 3.64277 86.2013 4.37031C85.3852 2.3322 83.733 1.43772 82.1777 0.929442C74.9489 -1.44254 68.3652 1.35301 65.8051 2.41193C65.4578 2.55644 62.3545 4.32546 62.0221 4.40519C61.5384 4.51981 61.067 4.18594 60.6205 3.89193C56.9565 1.48008 52.6674 1.26581 48.9042 3.30641C50.3356 4.04142 51.7918 4.79388 53.0147 6.12438C54.2377 7.45489 55.55 12.0693 55.6145 14.3267H74.3015Z" fill="#EFEAE1"/>
<path d="M110.718 7.4075C104.628 2.57384 95.7098 3.62279 90.8973 9.73962L89.1881 11.9098C86.7595 14.9969 87.2854 19.5191 90.3589 21.9583L101.324 30.6639C104.397 33.1032 108.9 32.5749 111.328 29.4879L113.037 27.3177C117.85 21.2009 116.806 12.2437 110.715 7.40999L110.718 7.4075Z" fill="#EFEAE1"/>
<path d="M20.2821 7.4075C26.3722 2.57384 35.2902 3.62279 40.1027 9.73962L41.8119 11.9098C44.2405 14.9969 43.7146 19.5191 40.6411 21.9583L29.6764 30.6639C26.6029 33.1032 22.1004 32.5749 19.6718 29.4879L17.9626 27.3177C13.1501 21.2009 14.1945 12.2437 20.2846 7.40999L20.2821 7.4075Z" fill="#EFEAE1"/>
<path d="M65.4504 65.1575C57.5147 65.1575 51.0228 71.6779 51.0228 79.6485V90.7784C51.0228 92.0192 52.0324 93.0333 53.2678 93.0333H77.6331C78.8685 93.0333 79.8781 92.0192 79.8781 90.7784V79.6485C79.8781 71.6779 73.3861 65.1575 65.4504 65.1575Z" fill="white"/>
<path d="M51.7769 49.3208C51.7769 44.5927 47.9607 40.7598 43.2532 40.7598C38.5458 40.7598 34.7296 44.5927 34.7296 49.3208V59.616C34.7296 64.3442 38.5458 68.1771 43.2532 68.1771C47.9607 68.1771 51.7769 64.3442 51.7769 59.616V49.3208Z" fill="white"/>
<path d="M96.9253 49.3208C96.9253 44.5927 93.1092 40.7598 88.4017 40.7598C83.6942 40.7598 79.8781 44.5927 79.8781 49.3208V59.616C79.8781 64.3442 83.6942 68.1771 88.4017 68.1771C93.1092 68.1771 96.9253 64.3442 96.9253 59.616V49.3208Z" fill="white"/>
<path d="M50.1446 51.7079C50.1446 49.1719 48.0982 47.116 45.5739 47.116C43.0496 47.116 41.0032 49.1719 41.0032 51.7079V57.2293C41.0032 59.7654 43.0496 61.8213 45.5739 61.8213C48.0982 61.8213 50.1446 59.7654 50.1446 57.2293V51.7079Z" fill="#4D4D4D"/>
<path d="M90.6541 51.7079C90.6541 49.1719 88.6078 47.116 86.0835 47.116C83.5592 47.116 81.5128 49.1719 81.5128 51.7079V57.2293C81.5128 59.7654 83.5592 61.8213 86.0835 61.8213C88.6078 61.8213 90.6541 59.7654 90.6541 57.2293V51.7079Z" fill="#4D4D4D"/>
<path d="M65.4504 68.1772C60.6627 68.1772 56.7457 72.1114 56.7457 76.9202V78.6269C56.7457 81.0537 58.7228 83.0395 61.139 83.0395H69.7593C72.1755 83.0395 74.1526 81.0537 74.1526 78.6269V76.9202C74.1526 72.1114 70.2356 68.1772 65.4479 68.1772H65.4504Z" fill="#4D4D4D"/>
<path d="M65.4504 101.923C71.9672 101.923 77.3006 99.5786 77.3006 93.0308H53.6027C53.6027 99.5761 58.9337 101.923 65.4529 101.923H65.4504Z" fill="#F5F5F5"/>
<path d="M39.7009 29.5029C35.1563 30.5693 32.048 34.0675 32.7947 37.2766C32.9857 38.1013 33.6455 38.7342 34.551 39.088C35.7765 39.5664 37.436 39.2574 38.5251 38.3903C39.1552 37.8895 40.1226 37.3015 41.4572 36.9926C42.7769 36.6861 43.8908 36.7808 44.6672 36.9477C46.0316 37.2417 47.6565 36.7783 48.547 35.8016C48.5569 35.7916 48.5669 35.7792 48.5768 35.7692C49.2094 35.0591 49.507 34.212 49.3185 33.4022C48.5718 30.193 44.243 28.439 39.6984 29.5079L39.7009 29.5029Z" fill="#E0D6C3"/>
<path d="M91.9516 29.5029C96.4962 30.5693 99.6045 34.0675 98.8578 37.2766C98.6668 38.1013 98.0069 38.7342 97.1015 39.088C95.876 39.5664 94.2164 39.2574 93.1274 38.3903C92.4973 37.8895 91.5298 37.3015 90.1952 36.9926C88.8755 36.6861 87.7617 36.7808 86.9852 36.9477C85.6208 37.2417 83.996 36.7783 83.1054 35.8016C83.0955 35.7916 83.0856 35.7792 83.0757 35.7692C82.4431 35.0591 82.1454 34.212 82.3339 33.4022C83.0806 30.193 87.4094 28.439 91.954 29.5079L91.9516 29.5029Z" fill="#E0D6C3"/>
<path d="M46.5972 52.7269C47.6357 52.7269 48.4776 51.8814 48.4776 50.8383C48.4776 49.7953 47.6357 48.9497 46.5972 48.9497C45.5587 48.9497 44.7169 49.7953 44.7169 50.8383C44.7169 51.8814 45.5587 52.7269 46.5972 52.7269Z" fill="white"/>
<path d="M85.0627 52.6173C86.1012 52.6173 86.943 51.7718 86.943 50.7287C86.943 49.6857 86.1012 48.8401 85.0627 48.8401C84.0242 48.8401 83.1823 49.6857 83.1823 50.7287C83.1823 51.7718 84.0242 52.6173 85.0627 52.6173Z" fill="white"/>
</g>
<defs>
<clipPath id="clip0_281_795">
<rect width="131" height="233" fill="white"/>
</clipPath>
</defs>
</svg>
