<svg width="271" height="440" viewBox="0 0 271 440" fill="none" xmlns="http://www.w3.org/2000/svg">
<g clip-path="url(#clip0_303_210)">
<path d="M52.7078 344.854L105.416 181.979H0L52.7078 344.854Z" fill="#DFFFFF"/>
<path d="M52.7078 344.854L105.416 181.979H52.7078" fill="#C7F1FB"/>
<path d="M188.203 280.167L271 181.979H105.416L188.203 280.167Z" fill="#DFFFFF"/>
<path d="M188.203 280.167L271 181.979H188.203" fill="#C7F1FB"/>
<path d="M123.087 440L188.203 181.979H57.9698L123.087 440Z" fill="#DFFFFF"/>
<path d="M123.087 440L188.203 181.979H123.087" fill="#C7F1FB"/>
<path d="M-0.000215197 171.051V181.979H271V171.051C271 167.017 269.036 163.328 265.921 161.508C198.605 122.164 72.3857 122.164 5.06985 161.508C1.96324 163.328 -0.00894165 167.007 -0.00894165 171.051H-0.000215197Z" fill="#DFFFFF"/>
<path d="M123.087 181.979H271V171.051C271 167.017 269.037 163.328 265.921 161.508C244.655 149.074 217.516 140.572 188.203 135.993L123.087 181.969V181.979Z" fill="#C7F1FB"/>
<path d="M75.0999 147.163C75.8242 159.8 88.2157 168.392 98.574 172.466C102.553 174.033 112.973 180.755 123.087 181.979C124.657 182.171 129.213 179.745 133.157 180.119C145.531 181.291 148.053 178.451 158.708 178.117C167.941 177.834 177.322 176.894 185.882 172.891C189.312 171.283 192.732 169.019 194.582 165.319C196.485 161.508 196.415 156.848 196.284 152.44C196.24 150.843 196.162 149.145 195.333 147.871C194.478 146.537 193.003 145.971 191.633 145.485C189.224 144.626 190.656 136.66 188.195 135.993C187.261 135.74 184.181 135.872 179.599 136.367C176.056 136.751 168.464 139.774 164.904 139.865C159.057 140.016 153.21 140.158 147.372 140.31C142.529 140.431 137.686 140.552 132.869 141.189C125.966 142.089 119.195 144.03 112.318 145.202C105.45 146.375 98.4868 146.769 91.5492 146.395L75.0912 147.163H75.0999Z" fill="#C7F1FB"/>
</g>
<g clip-path="url(#clip1_303_210)">
<path d="M201.246 10.3895C200.17 18.8647 183.876 41.1754 179.964 52.1962C176.052 63.217 173.011 106.328 168.453 117.348C163.895 128.369 166.281 146.168 170.839 148.176C175.406 150.183 182.351 153.184 179.094 158.7C175.837 164.215 166.057 161.711 164.316 161.711C164.316 161.711 169.745 169.731 159.534 169.979C149.324 170.228 140.818 168.179 136.861 165.902C136.269 165.561 135.399 165.312 134.358 165.136C129.486 164.308 120.882 165.116 119.338 165.488C117.463 165.954 88.4828 151.932 88.4828 151.932C88.4828 151.932 97.6076 120.608 99.7789 116.852C101.95 113.095 132.591 77.0111 132.591 77.0111C132.591 77.0111 148.014 55.4559 148.238 54.7108C148.462 53.9657 170.615 31.9034 170.615 31.9034L185.177 14.1149L196.688 10.3999H201.237L201.246 10.3895Z" fill="#E0D6C3"/>
<path d="M201.246 10.3896C201.246 13.1422 179.085 34.7699 175.675 47.3533C172.266 59.9367 153.855 70.5539 151.127 83.1373C148.4 95.7207 141.922 139.369 151.127 153.919C157.946 165.716 153.855 166.896 152.15 168.075C150.445 169.255 132.034 170.041 131.011 156.278C129.989 142.515 132.716 117.348 125.897 113.416C125.897 113.416 133.147 146.448 112.134 149.987C112.134 149.987 130.33 154.705 126.238 161.39C122.147 168.075 100.192 167.723 96.1003 166.15C92.009 164.578 66.0791 155.937 70.5114 128.411C78.0122 85.5484 96.0913 61.9132 123.511 57.9809C134.762 54.8143 146.794 36.7361 144.865 30.8376C142.936 24.9391 142.936 19.0407 148.05 19.0407C153.164 19.0407 164.765 2.13172 182.153 4.88434C188.972 4.58424 193.611 -1.01413 195.387 1.34526C197.164 3.70464 201.246 10.3896 201.246 10.3896Z" fill="#EFEAE1"/>
<path d="M201.049 11.4555C201.821 9.61349 202.153 7.32654 201.946 5.21551C201.74 3.10448 200.69 1.01415 199.084 0.227683C197.729 -0.434601 194.347 0.517432 192.974 0.993449C192.929 1.73852 193.378 6.64356 197.487 9.8515C198.77 10.8553 200.161 11.1657 201.049 11.4555Z" fill="#4D4D4D"/>
<path d="M170.066 13.3802C171.295 12.7983 171.991 11.4866 171.622 10.4504C171.253 9.41423 169.959 9.04601 168.73 9.62795C167.502 10.2099 166.805 11.5216 167.174 12.5578C167.543 13.594 168.838 13.9622 170.066 13.3802Z" fill="#4D4D4D"/>
</g>
<defs>
<clipPath id="clip0_303_210">
<rect width="271" height="308" fill="white" transform="translate(0 132)"/>
</clipPath>
<clipPath id="clip1_303_210">
<rect width="132" height="170" fill="white" transform="translate(70)"/>
</clipPath>
</defs>
</svg>
