<svg width="257" height="270" viewBox="0 0 257 270" fill="none" xmlns="http://www.w3.org/2000/svg">
<g clip-path="url(#clip0_281_817)">
<path d="M89.8308 270H24.1258C10.8019 270 0 259.156 0 245.78V80.5054C0 56.7029 13.4001 25.3396 37.1171 25.3396H76.8395C100.556 25.3396 113.957 56.7029 113.957 80.5123V245.794C113.957 259.17 103.155 270.014 89.8308 270.014V270Z" fill="#E8F7FF"/>
<path d="M113.957 119.332H0V192.02H113.957V119.332Z" fill="#AABAFF"/>
<path d="M43.0481 0H70.9154C74.1858 0 76.8464 2.66404 76.8464 5.95409V25.3397H37.1171V5.95409C37.1171 2.67099 39.7708 0 43.0481 0Z" fill="#AABAFF"/>
<path d="M56.9749 25.3396H76.8395C100.556 25.3396 113.957 56.7029 113.957 80.5123V245.794C113.957 259.17 103.155 270.014 89.8308 270.014H56.9749" fill="#E0F1FF"/>
<path d="M113.95 119.332H56.9749V192.02H113.95V119.332Z" fill="#90A2E1"/>
<path d="M56.9749 0H68.3033C73.0148 0 76.8395 3.83955 76.8395 8.56944V25.3397H56.9749" fill="#90A2E1"/>
<path d="M203.393 37.4565H257L236.103 18.0779H188.364L203.393 37.4565Z" fill="#C9BADF"/>
<path d="M215.199 270L140.632 258.899V37.4565H215.199V270Z" fill="#F9EFFF"/>
<path d="M174.735 6.47583H231.398C233.997 6.47583 236.103 8.59037 236.103 11.1988V18.078H170.031V11.1988C170.031 8.59037 172.137 6.47583 174.735 6.47583Z" fill="#F9EFFF"/>
<path d="M215.199 37.4565H140.632L170.252 18.1266L236.103 18.0779L215.199 37.4565Z" fill="#FFF5FF"/>
<path d="M257 263.037L215.199 270V37.4565H257V263.037Z" fill="#EFE1FD"/>
<path d="M225.648 27.7673L215.199 37.4566H257L225.648 27.7673Z" fill="#D7C6E7"/>
</g>
<defs>
<clipPath id="clip0_281_817">
<rect width="257" height="270" fill="white"/>
</clipPath>
</defs>
</svg>
