<svg width="184" height="310" viewBox="0 0 184 310" fill="none" xmlns="http://www.w3.org/2000/svg">
<g clip-path="url(#clip0_281_834)">
<path d="M125.964 66.226L138.191 51.4769C144.334 44.0653 144.26 33.8036 138.023 28.5481C131.787 23.2926 121.753 25.0512 115.61 32.4628L109.48 39.8609V20.4627C109.48 9.15669 101.773 0 92.2674 0C82.7619 0 75.0546 9.16342 75.0546 20.4627V40.5145L68.3834 32.4628C62.2402 25.0512 52.2066 23.2994 45.9699 28.5481C39.7332 33.7969 39.6597 44.0653 45.8028 51.4769L58.0289 66.226C24.0378 78.3608 0 108.169 0 143.024V259.615C0 287.442 25.1207 310 56.1171 310H127.89C158.879 310 184.007 287.442 184.007 259.615V143.024C184.007 108.176 159.969 78.3675 125.971 66.2327L125.964 66.226Z" fill="#3F3541"/>
<path d="M134.975 32.7728C136.867 30.1586 135.436 26.4393 132.288 25.8059C126.653 24.6673 120.102 27.0659 115.617 32.4696L100.042 51.2547C97.4078 54.4349 92.2674 52.5551 92.2674 48.4113V5.41732C92.2674 2.18317 88.9451 0.0338085 86.0307 1.38137C79.6068 4.35275 75.0546 11.7711 75.0546 20.4629V49.5972C74.9743 52.1508 74.3861 54.3338 72.2537 55.2232C69.9876 56.1733 67.9087 55.1963 66.1173 52.865C60.6092 46.2148 55.0944 39.5713 49.5863 32.9211C47.4472 30.3405 43.256 30.9738 42.1196 34.1339C40.2011 39.4635 41.4244 46.1946 45.8028 51.477L54.1117 61.4961C56.0102 63.787 55.1612 67.257 52.4339 68.4226C21.4308 81.7028 0 110.116 0 143.024V259.615C0 287.442 25.1207 310 56.1171 310H87.6082C90.0347 310 92.0067 308.013 92.0067 305.567V91.722C92.1003 91.722 92.1872 91.7354 92.2741 91.7354L134.975 32.7728Z" fill="#616171"/>
</g>
<defs>
<clipPath id="clip0_281_834">
<rect width="184" height="310" fill="white"/>
</clipPath>
</defs>
</svg>
