<svg width="166" height="292" viewBox="0 0 166 292" fill="none" xmlns="http://www.w3.org/2000/svg">
<g clip-path="url(#clip0_281_839)">
<path d="M166 82.9582C166 37.1381 128.841 0 83.0047 0C37.1684 0 0 37.1381 0 82.9582C0 106.898 10.1489 134.908 26.3834 156.191C32.6494 164.408 36.0956 174.418 36.0956 184.742V198.576C36.0956 224.47 57.096 245.459 83.0047 245.459C108.913 245.459 129.914 224.47 129.914 198.576V184.742C129.914 174.418 133.36 164.408 139.626 156.191C155.861 134.908 166.009 106.898 166.009 82.9582H166Z" fill="#FFEC3F"/>
<path d="M83.0047 245.449C108.913 245.449 129.914 224.461 129.914 198.566V184.732C129.914 174.409 133.36 164.398 139.626 156.181C155.861 134.898 166.009 106.888 166.009 82.9487C166 37.1381 128.841 0 83.0047 0V245.449Z" fill="#F7DA31"/>
<g opacity="0.4">
<path d="M114.781 102.97C112.91 100.237 109.16 98.6428 105.98 98.1115C105.951 98.1115 105.923 98.102 105.894 98.0925C102.059 97.4757 98.2044 98.6808 95.0714 100.986C91.6536 103.501 87.5048 105.01 83.2706 105.01C78.6945 105.01 74.6122 103.472 71.3463 100.93C69.0393 99.1267 66.2196 98.0166 63.286 97.9217C60.3524 97.8268 57.5042 98.472 54.7415 99.9522C53.3649 100.692 52.0168 101.632 51.1529 102.97C50.175 104.478 49.9566 106.234 49.9092 107.999C49.8332 110.731 50.137 113.454 50.5832 116.14C51.4092 121.026 53.0611 125.704 54.6276 130.391C55.4251 132.783 56.2036 135.174 56.8492 137.603C57.1435 138.732 57.4188 139.861 57.6467 141.009C57.7606 141.588 57.865 142.157 57.9599 142.736C57.9789 142.84 58.0169 143.106 58.0359 143.239C58.0739 143.533 58.1024 143.837 58.1403 144.131C58.6815 149.767 57.6087 155.327 57.4283 160.954C57.2479 166.543 58.3492 171.942 61.0549 176.866C63.1341 180.643 66.0392 183.859 68.5266 187.361C71.1944 191.118 73.302 195.35 75.2198 199.525C75.4761 200.085 75.7324 200.654 75.9793 201.223C75.9983 201.271 76.0173 201.309 76.0268 201.337C76.1597 201.679 76.3021 202.02 76.435 202.362C76.9097 203.595 77.3559 204.848 77.7262 206.119C78.0679 207.286 78.3243 208.473 78.5616 209.668C78.5616 209.659 78.5616 209.64 78.5711 209.64C78.5711 209.64 78.5711 209.668 78.5616 209.687C78.5616 209.725 78.5806 209.763 78.5806 209.801C78.6281 210.048 78.6091 210.095 78.5806 210.067C78.6091 210.294 78.647 210.541 78.647 210.588C78.6945 211.196 78.6945 211.803 78.6755 212.42C78.6281 213.72 79.3306 214.972 80.3559 215.779C81.068 216.367 81.9509 216.728 82.9478 216.69C83.9826 216.642 84.894 216.272 85.6155 215.684C86.6029 214.915 87.2675 213.777 87.22 212.42C87.201 211.917 87.201 211.405 87.22 210.902C87.2295 210.693 87.2485 210.484 87.2675 210.275C87.2675 210.247 87.296 210.01 87.3149 209.829C87.3434 209.668 87.3719 209.497 87.3719 209.478C87.4099 209.26 87.4574 209.042 87.4953 208.814C87.6187 208.197 87.7706 207.581 87.932 206.973C88.2074 205.939 88.5396 204.914 88.8909 203.909C89.0713 203.396 89.2612 202.884 89.4606 202.371C89.5745 202.087 89.6884 201.802 89.8023 201.517C89.8498 201.404 89.8973 201.28 89.9447 201.166C91.6536 197.333 93.5049 193.509 95.679 189.913C97.8911 186.269 100.777 183.1 103.16 179.58C106.113 175.234 107.898 170.414 108.372 165.167C108.894 159.388 107.622 153.648 107.594 147.869C107.594 146.617 107.641 145.374 107.765 144.131C107.793 143.865 107.822 143.609 107.85 143.343C107.85 143.286 107.86 143.239 107.869 143.201C107.869 143.172 107.879 143.154 107.888 143.116C108.012 142.413 108.116 141.702 108.258 141C108.743 138.59 109.398 136.217 110.138 133.874C111.619 129.148 113.395 124.518 114.581 119.707C115.227 117.089 115.673 114.413 115.891 111.728C116.129 108.938 116.404 105.37 114.752 102.96L114.781 102.97ZM107.461 110.371C107.432 110.959 107.394 111.538 107.337 112.126C107.309 112.439 107.271 112.762 107.233 113.075C107.233 113.084 107.233 113.094 107.233 113.103C107.034 114.375 106.796 115.627 106.502 116.88C105.41 121.51 103.739 125.979 102.277 130.505C100.682 135.449 99.4101 140.516 99.1348 145.725C98.8405 151.342 100.018 156.902 99.9892 162.52C99.9892 163.184 99.9702 163.848 99.9228 164.512C99.9038 164.806 99.8753 165.1 99.8468 165.395C99.8468 165.508 99.8373 165.594 99.8278 165.66C99.8278 165.689 99.8089 165.736 99.7994 165.793C99.5715 166.97 99.3342 168.137 98.9544 169.275C98.8025 169.75 98.6221 170.215 98.4322 170.68C98.3563 170.832 98.1379 171.315 98.0525 171.496C97.5493 172.502 96.9797 173.479 96.3721 174.428C94.103 177.957 91.2644 181.07 88.9764 184.58C86.6409 188.158 84.6851 192.114 82.9668 196.033C81.6186 193.044 80.1186 190.131 78.5426 187.256C76.5014 183.527 73.7767 180.311 71.2703 176.895C70.0456 175.225 68.8969 173.498 67.957 171.638C67.881 171.477 67.5487 170.746 67.4823 170.632C67.3209 170.234 67.169 169.835 67.0361 169.427C66.6563 168.298 66.3905 167.15 66.1721 165.992C66.1531 165.888 66.1342 165.803 66.1247 165.727C66.1247 165.689 66.1247 165.651 66.1247 165.594C66.0962 165.224 66.0582 164.863 66.0297 164.493C65.9918 163.905 65.9728 163.317 65.9633 162.719C65.9443 161.229 66.0202 159.73 66.1342 158.25C66.343 155.384 66.6943 152.538 66.8177 149.672C67.0456 144.368 66.2006 139.102 64.7481 134.007C63.4284 129.357 61.6815 124.85 60.3334 120.21C59.6499 117.867 59.0992 115.494 58.7195 113.084C58.7195 113.075 58.7195 113.056 58.7195 113.037C58.7195 113.046 58.7195 113.056 58.7195 113.065C58.7195 113.056 58.7195 113.037 58.7195 113.027C58.71 112.952 58.7005 112.847 58.691 112.762C58.672 112.61 58.653 112.449 58.6435 112.297C58.5771 111.652 58.5296 110.997 58.5011 110.352C58.4821 109.83 58.4631 109.298 58.4726 108.777C58.4726 108.444 58.4726 108.112 58.4916 107.78C58.4916 107.742 58.4916 107.695 58.4916 107.657C58.691 107.543 58.8809 107.42 59.0802 107.315C59.1087 107.296 59.7733 107.002 59.8018 106.974C60.3429 106.774 60.903 106.604 61.4727 106.48C61.4632 106.48 61.9853 106.414 62.1752 106.376C62.4221 106.376 62.7923 106.348 62.8683 106.348C63.1911 106.348 63.5233 106.366 63.8461 106.376C63.9316 106.376 63.998 106.376 64.0455 106.376C64.1025 106.395 64.1689 106.414 64.2639 106.442C64.8905 106.613 65.4981 106.784 66.1057 106.983L66.1626 107.012C66.4759 107.173 66.7987 107.325 67.112 107.486C67.7006 107.799 68.2798 108.131 68.8494 108.482C71.2229 109.896 73.5299 111.395 76.1692 112.287C77.7926 112.838 79.492 113.008 81.1439 112.79C82.4826 112.61 83.8402 112.695 85.1883 112.79C88.834 113.075 92.4416 111.32 95.7075 109.336C96.6474 108.767 97.5873 108.179 98.5462 107.647C98.9639 107.42 99.3816 107.211 99.8088 107.002C99.8468 106.983 99.8848 106.964 99.9133 106.945C99.9323 106.945 99.9513 106.936 99.9892 106.926C100.378 106.822 100.749 106.67 101.138 106.566C101.442 106.49 101.746 106.423 102.059 106.366C102.087 106.366 102.106 106.366 102.135 106.366C102.723 106.338 103.312 106.395 103.891 106.366C103.929 106.366 103.967 106.366 103.996 106.366C104.034 106.366 104.072 106.385 104.119 106.395C104.375 106.452 104.632 106.499 104.898 106.566C105.154 106.632 105.41 106.708 105.667 106.784L106.625 107.183C106.92 107.334 107.205 107.496 107.48 107.666V107.685C107.527 108.577 107.518 109.469 107.48 110.361L107.461 110.371Z" fill="#9B9285"/>
<path d="M101.983 106.395C101.47 106.424 101.774 106.414 101.983 106.395Z" fill="#9B9285"/>
<path d="M75.8944 201.016C75.8747 200.976 75.8747 200.967 75.8944 201.016Z" fill="#9B9285"/>
<path d="M107.243 113.065C107.356 112.354 107.271 112.866 107.243 113.065Z" fill="#9B9285"/>
<path d="M107.869 107.923C107.869 107.923 107.936 107.961 107.964 107.98C108.249 108.151 108.287 108.399 107.869 107.923Z" fill="#9B9285"/>
<path d="M58.672 112.79C58.6815 112.876 58.691 112.961 58.7005 113.056C58.7005 113.056 58.7005 113.056 58.7005 113.065C58.653 112.619 58.653 112.657 58.672 112.79Z" fill="#9B9285"/>
<path d="M78.5711 209.696C78.5711 209.696 78.5711 209.687 78.5711 209.677C78.5141 209.801 78.5711 210.029 78.6091 210.076C78.5901 209.924 78.5711 209.772 78.5806 209.696H78.5711Z" fill="#9B9285"/>
</g>
<path d="M142.968 220.912V218.037C142.968 213.131 138.952 209.108 134.034 209.108H31.9563C27.048 209.108 23.0226 213.122 23.0226 218.037V220.912C23.0226 225.817 27.0385 229.841 31.9563 229.841C27.048 229.841 23.0226 233.854 23.0226 238.769V241.644C23.0226 246.55 27.0385 250.573 31.9563 250.573C27.048 250.573 23.0226 254.587 23.0226 259.502V262.377C23.0226 267.282 27.0385 271.305 31.9563 271.305C27.048 271.305 23.0226 275.319 23.0226 280.234V283.109C23.0226 288.015 27.0385 292.038 31.9563 292.038H134.034C138.943 292.038 142.968 288.024 142.968 283.109V280.234C142.968 275.329 138.952 271.305 134.034 271.305C138.943 271.305 142.968 267.292 142.968 262.377V259.502C142.968 254.596 138.952 250.573 134.034 250.573C138.943 250.573 142.968 246.559 142.968 241.644V238.769C142.968 233.864 138.952 229.841 134.034 229.841C138.943 229.841 142.968 225.827 142.968 220.912Z" fill="#E6E6E6"/>
<path d="M145.284 220.912V218.037C145.284 213.131 141.268 209.108 136.351 209.108H83.0047V291.99H136.351C141.259 291.99 145.284 287.977 145.284 283.062V280.187C145.284 275.281 141.268 271.258 136.351 271.258C141.259 271.258 145.284 267.244 145.284 262.329V259.454C145.284 254.549 141.268 250.526 136.351 250.526C141.259 250.526 145.284 246.512 145.284 241.597V238.722C145.284 233.816 141.268 229.793 136.351 229.793C141.259 229.793 145.284 225.779 145.284 220.864V220.912Z" fill="#D2D2D2"/>
</g>
<defs>
<clipPath id="clip0_281_839">
<rect width="166" height="292" fill="white"/>
</clipPath>
</defs>
</svg>
