<svg width="292" height="270" viewBox="0 0 292 270" fill="none" xmlns="http://www.w3.org/2000/svg">
<g clip-path="url(#clip0_294_207)">
<path d="M204.791 36.1826C198.129 38.8884 192.269 43.4814 189.096 49.9684C187.237 53.7362 186.496 58.3968 184.9 61.894C183.781 64.4171 182.084 66.7644 180.063 68.7666C175.948 61.5896 169.98 55.5287 166.43 48.2909C160.725 38.5434 160.913 27.4634 164.227 16.9786C169.764 19.9684 175.853 8.77339 178.117 0C169.811 3.41601 159.829 10.4983 162.314 15.1387C155.74 26.1308 153.019 39.4498 157.687 52.1195C157.997 52.9651 158.354 53.8038 158.738 54.6426C157.64 54.9538 156.562 55.3799 155.498 55.9008C149.799 59.0733 146.013 64.6471 140.362 67.2582C139.5 67.6708 138.651 67.9278 137.809 68.0496C141.056 57.6798 120.963 49.1905 105.066 46.8298C111.876 62.5569 126.432 80.9831 135.128 72.3315C137.183 73.0079 139.453 73.177 141.945 72.6088C149.092 71.5874 154.157 63.6595 161.162 64.1804C161.93 64.2548 162.274 64.4442 162.348 64.4645C162.409 64.478 162.638 64.4442 163.183 64.9786C163.823 65.5603 164.524 66.1894 165.298 66.7779C165.891 67.9211 166.443 69.0507 166.888 70.1601C169.394 76.2074 170 83.1409 168.848 89.3912C168.04 93.3754 166.524 98.124 167.959 103.211C171.401 102.933 173.806 102.419 176.15 101.29C184.165 97.5964 186.26 86.0293 183.896 78.257C183.862 78.0947 183.808 77.9459 183.775 77.7835C185.95 76.3292 187.789 74.3675 188.901 72.3923C193.245 65.8715 192.417 58.3698 194.875 51.7069C196.526 45.9504 200.587 41.4859 205.72 38.1443C205.794 38.2661 205.848 38.3878 205.936 38.5096C214.43 51.0913 233.674 31.6032 243.232 15.0169C225.106 17.1477 201.598 25.6573 204.804 36.1759L204.791 36.1826Z" fill="#30BB51"/>
<path d="M122.822 61.8398C123.731 62.7057 124.647 63.5715 125.604 64.39C126.116 64.8297 126.5 65.1679 126.823 65.452C127.072 65.6008 127.375 65.7902 127.739 66.027C129.14 66.9267 130.952 66.6696 132.117 65.4791C133.552 64.0112 135.142 62.6989 136.859 61.576C136.859 61.576 136.859 61.5693 136.859 61.5625C132.461 54.2976 117.595 48.7305 105.208 46.8635C105.201 46.8635 105.194 46.8703 105.201 46.8771C110.731 52.2615 117.211 56.5028 122.822 61.8398Z" fill="#30AB51"/>
<path d="M203.457 39.7543C203.571 39.6596 203.686 39.5717 203.8 39.477C203.827 39.4567 203.848 39.4431 203.875 39.4228C205.767 37.8873 207.869 36.7171 210.213 35.9527C211.473 35.2898 212.779 34.7757 214.12 34.3969C214.315 34.3225 214.511 34.2346 214.706 34.1669C217.292 33.1929 219.879 32.2188 222.445 31.1906C223.146 30.9133 224.81 30.4059 225.739 30.1354C225.301 30.2639 224.635 30.4533 223.617 30.7442C226.17 30.0204 228.811 28.654 231.317 27.247C231.889 26.8141 233.068 25.8873 233.647 25.4679C233.802 25.3259 233.93 25.2109 233.997 25.1433C234.934 24.2639 235.836 23.3642 236.705 22.4172C236.746 22.3766 236.766 22.3496 236.806 22.309C236.88 22.1602 237.022 21.9572 237.204 21.734C237.749 20.8614 238.625 19.5491 238.726 19.3597C239.487 18.0407 240.188 16.6945 240.881 15.3417C223.139 17.8918 201.712 26.1173 204.784 36.1895C198.122 38.8952 192.262 43.4882 189.089 49.9753C187.23 53.743 186.489 58.4037 184.893 61.9009C183.775 64.424 182.077 66.7712 180.057 68.7735C175.941 61.5965 169.973 55.5356 166.423 48.2977C160.718 38.5502 160.906 27.4702 164.221 16.9854C169.757 19.9753 175.847 8.78023 178.11 0.00683594C169.805 3.42285 159.822 10.5051 162.308 15.1455C155.733 26.1376 153.012 39.4567 157.68 52.1263C157.99 52.9719 158.347 53.8107 158.731 54.6495C157.633 54.9606 156.555 55.3868 155.491 55.9076C154.757 56.3135 154.056 56.7667 153.376 57.247C167.144 58.3631 177.133 70.0519 177.746 83.7768C178.083 91.2718 174.627 98.185 169.286 103.096C172.034 102.792 174.109 102.277 176.136 101.303C184.152 97.61 186.247 86.0429 183.883 78.2706C183.849 78.1083 183.795 77.9595 183.761 77.7971C185.937 76.3428 187.776 74.3811 188.887 72.4059C193.232 65.8851 192.403 58.3834 194.862 51.7205C196.263 46.8366 199.409 42.8862 203.464 39.7611L203.457 39.7543Z" fill="#30AB51"/>
<path d="M241.057 95.7158H66.126V177.511C66.126 213.463 79.6853 224.056 120.518 224.056L275.807 226.498V125.459C275.807 109.062 260.22 95.7226 241.057 95.7226V95.7158ZM263.42 125.452V130.755H220.519V106.309H241.057C253.39 106.309 263.42 114.893 263.42 125.452ZM143.622 172.099V141.355H208.138V172.099H143.622ZM208.138 182.699V213.463H143.622V182.699H208.138ZM131.242 172.099H78.5133V141.355H131.248V172.099H131.242ZM143.622 130.762V106.316H208.138V130.762H143.622ZM220.519 141.362H263.42V172.106H220.519V141.362ZM131.235 106.322V130.769H78.5133V106.322H131.248H131.235ZM78.9444 182.706H131.235V213.47H120.505C99.4012 213.47 78.4998 207.051 78.9444 182.706ZM220.519 213.47V182.706H263.42V213.47H220.519Z" fill="#8DF196"/>
<path d="M241.057 95.7158H175.106V106.316H208.138V130.762H175.106V141.362H208.138V172.106H175.106V182.706H208.138V213.47H175.106V224.922L275.807 226.505V125.459C275.807 109.062 260.22 95.7226 241.057 95.7226V95.7158ZM263.42 213.457H220.519V182.692H263.42V213.457ZM263.42 172.099H220.519V141.355H263.42V172.099ZM263.42 130.762H220.519V106.316H241.057C253.39 106.316 263.42 114.9 263.42 125.459V130.762Z" fill="#81D7A6"/>
<path d="M286.12 232.992C280.495 226.478 272.028 222.893 262.281 222.893H118.619C69.7702 222.893 68.7328 193.65 68.7126 192.419V192.23C68.6924 191.493 66.9478 117.856 68.6992 84.4126C69.8173 63.071 44.3355 59.1341 40.2805 58.8229C25.1113 57.6459 5.61772 67.1228 0.33006 86.868C-1.02385 91.9345 1.97361 97.1702 7.02552 98.5366C12.0774 99.8962 17.2842 96.8793 18.6382 91.8128C21.1237 82.5456 30.7493 78.9469 37.3033 77.6347C42.0386 76.6809 50.0475 78.027 49.7646 83.4182C47.9594 117.889 49.7377 191.953 49.7579 192.717C49.8252 194.726 52.102 241.941 118.619 241.941H262.281C270.668 241.941 272.715 246.629 273.005 247.393C272.715 252.325 276.198 256.647 281.135 257.351C281.58 257.418 282.038 257.445 282.482 257.445C287.164 257.445 291.198 253.928 291.859 249.267C292.593 244.086 290.451 238.004 286.12 232.992Z" fill="#C4C4C4"/>
<path d="M286.12 232.992C280.495 226.478 272.028 222.893 262.281 222.893H175.106V241.935H262.281C270.668 241.935 272.715 246.622 273.005 247.387C272.715 252.318 276.198 256.64 281.135 257.344C281.58 257.411 282.038 257.438 282.482 257.438C287.164 257.438 291.198 253.921 291.859 249.26C292.593 244.079 290.451 237.998 286.12 232.985V232.992Z" fill="#B3B3B3"/>
<path d="M101.894 270C112.641 270 121.353 261.251 121.353 250.458C121.353 239.665 112.641 230.916 101.894 230.916C91.1461 230.916 82.4336 239.665 82.4336 250.458C82.4336 261.251 91.1461 270 101.894 270Z" fill="#333333"/>
<path d="M237.224 270C247.971 270 256.684 261.251 256.684 250.458C256.684 239.665 247.971 230.916 237.224 230.916C226.476 230.916 217.764 239.665 217.764 250.458C217.764 261.251 226.476 270 237.224 270Z" fill="#333333"/>
<path d="M101.894 270C112.644 270 121.353 261.254 121.353 250.458C121.353 239.662 112.644 230.916 101.894 230.916" fill="#1A1A1A"/>
<path d="M237.224 270C247.974 270 256.684 261.254 256.684 250.458C256.684 239.662 247.974 230.916 237.224 230.916" fill="#1A1A1A"/>
</g>
<defs>
<clipPath id="clip0_294_207">
<rect width="292" height="270" fill="white"/>
</clipPath>
</defs>
</svg>
