<svg width="232" height="183" viewBox="0 0 232 183" fill="none" xmlns="http://www.w3.org/2000/svg">
<g clip-path="url(#clip0_294_222)">
<path d="M218.913 30.8525H13.0869L38.1138 183H193.886L218.913 30.8525Z" fill="#54BD61"/>
<path d="M0 30.8525H232L221.024 0H10.9758L0 30.8525Z" fill="#60CF81"/>
<path d="M130.948 30.8525L116.002 183H193.886L218.913 30.8525H130.948Z" fill="#54A571"/>
<path d="M109.259 30.8525H232L221.024 0H116.002L109.259 30.8525Z" fill="#60BB81"/>
<g opacity="0.5">
<path d="M170.689 53.7053C161.7 67.3873 145.054 73.8059 129.07 77.3833C113.09 80.9606 96.3301 82.6555 81.8835 90.3686C69.8299 96.8019 59.6649 109.066 58.7948 122.209C94.125 120.598 132.382 106.225 138.35 98.9958C136.817 102.148 132.684 104.821 128.338 107.248C110.114 117.411 86.0514 124.942 59.8182 128.89C60.7229 130.718 62.1419 132.289 63.9514 133.356L64.0058 133.391L64.0948 133.445C67.4469 135.407 71.1895 136.603 75.0558 136.954C90.3675 138.342 105.847 139.493 120.976 136.899C137.109 134.132 153.078 126.557 162.531 113.202C170.259 102.282 172.854 88.8121 173.161 75.2685C173.324 68.005 172.434 60.7563 170.674 53.7103L170.689 53.7053Z" fill="#C5FFBF"/>
</g>
</g>
<defs>
<clipPath id="clip0_294_222">
<rect width="232" height="183" fill="white"/>
</clipPath>
</defs>
</svg>
