<svg width="494" height="183" viewBox="0 0 494 183" fill="none" xmlns="http://www.w3.org/2000/svg">
<g clip-path="url(#clip0_281_854)">
<path d="M446.813 108.727H56.8044V156.06H446.813V108.727Z" fill="#161818"/>
<path d="M1.81528 132.537V137.902C1.81528 137.902 7.23988 146.758 7.76005 146.587C8.28022 146.417 58.8957 133.729 58.8957 133.729L94.0229 126.662C94.0229 126.662 98.4285 122.181 102.579 120.254C106.73 118.328 95.4667 115.305 95.4667 115.305L12.4309 124.171L1.81528 132.527V132.537Z" fill="white"/>
<path d="M494 118.849H489.637V124.171H494V118.849Z" fill="white"/>
<path d="M66.3585 4.83228C28.864 17.3495 1.81528 52.8148 1.81528 94.624V107.599H484.117V24.3638C484.117 23.8103 484.096 23.2675 484.053 22.7246H142.101C142.101 22.7246 100.668 9.00467 66.3585 4.83228Z" fill="#025DAF"/>
<path d="M16.0403 44.6404C7.02757 59.148 1.81528 76.2739 1.81528 94.624V107.599H484.117V41.4153" fill="#5F6364"/>
<path d="M12.4309 107.599V94.624C12.4309 80.8189 15.7961 67.3118 22.1974 55.2417L423.416 52.123V90.4623L393.448 107.599H12.4309Z" fill="#3A3A3B"/>
<path d="M459.807 0H96.1885C85.764 0 75.7322 1.70302 66.3585 4.83231C100.668 9.00471 142.091 22.7353 142.091 22.7353H484.053C483.214 10.0372 472.684 0 459.807 0Z" fill="#00A147"/>
<path d="M1.81528 107.599V132.537L102.579 120.254C107.781 117.434 113.726 115.837 120.053 115.837C125.244 115.837 130.18 116.923 134.649 118.86H351.962C355.561 117.583 361.442 116.008 368.756 116.38C373.905 116.636 378.141 117.785 381.166 118.86H484.106V107.599H1.81528Z" fill="#00A147"/>
<path d="M83.2693 152.708C83.2693 142.532 87.3775 133.325 94.0229 126.651L1.81528 137.891V138.924C1.81528 152.378 12.6963 163.288 26.1145 163.288H84.8086C83.8107 159.935 83.2587 156.38 83.2587 152.697L83.2693 152.708Z" fill="#025DAF"/>
<path d="M343.268 124.171H143.354C151.581 130.93 156.836 141.202 156.836 152.708C156.836 156.39 156.294 159.945 155.286 163.298H175.456C187.929 151.494 245.328 149.844 277.525 145.395C282.249 144.746 286.984 144.118 291.729 143.511C294.489 143.16 297.26 142.819 300.02 142.479C300.827 142.383 301.623 142.287 302.43 142.191C302.653 142.17 302.95 142.128 303.321 142.085C303.491 142.064 303.672 142.042 303.873 142.021C313.374 140.946 322.886 139.946 332.419 139.02C334.744 133.187 338.502 128.088 343.268 124.171Z" fill="#025DAF"/>
<path d="M389.871 124.171C393.087 126.811 395.848 129.983 398.013 133.559C426.697 131.505 455.412 129.759 484.106 127.929V124.171H389.871Z" fill="#025DAF"/>
<path d="M351.962 118.849H134.649C137.802 120.222 140.732 122.011 143.354 124.171H343.268C345.89 122.011 348.82 120.222 351.973 118.849H351.962Z" fill="white"/>
<path d="M381.166 118.849C384.319 120.222 387.249 122.011 389.871 124.171H484.106V118.849H381.166Z" fill="white"/>
<path d="M329.786 152.708C329.786 147.875 330.72 143.256 332.408 139.03C322.886 139.956 313.374 140.957 303.863 142.032C303.661 142.053 303.481 142.074 303.311 142.096C302.939 142.138 302.642 142.181 302.419 142.202C301.612 142.298 300.816 142.394 300.009 142.49C297.239 142.83 294.479 143.171 291.718 143.522C286.984 144.129 282.249 144.757 277.515 145.406C245.317 149.855 187.919 151.505 175.445 163.309H331.326C330.328 159.956 329.776 156.401 329.776 152.718L329.786 152.708Z" fill="#00A147"/>
<path d="M398.013 133.57C401.4 139.147 403.353 145.704 403.353 152.707C403.353 156.39 402.811 159.945 401.803 163.298H418.374C431.792 163.298 484.106 152.388 484.106 138.934V127.939C455.401 129.781 426.697 131.516 398.013 133.57Z" fill="#00A147"/>
<path d="M120.116 183.011C136.738 183.011 150.212 169.501 150.212 152.835C150.212 136.17 136.738 122.66 120.116 122.66C103.495 122.66 90.0209 136.17 90.0209 152.835C90.0209 169.501 103.495 183.011 120.116 183.011Z" fill="#3A3A3B"/>
<path d="M120.116 170.036C129.591 170.036 137.271 162.335 137.271 152.835C137.271 143.336 129.591 135.635 120.116 135.635C110.642 135.635 102.961 143.336 102.961 152.835C102.961 162.335 110.642 170.036 120.116 170.036Z" fill="#5F6364"/>
<path d="M366.272 183.011C382.894 183.011 396.368 169.501 396.368 152.835C396.368 136.17 382.894 122.66 366.272 122.66C349.651 122.66 336.177 136.17 336.177 152.835C336.177 169.501 349.651 183.011 366.272 183.011Z" fill="#3A3A3B"/>
<path d="M366.272 170.036C375.747 170.036 383.427 162.335 383.427 152.835C383.427 143.336 375.747 135.635 366.272 135.635C356.798 135.635 349.117 143.336 349.117 152.835C349.117 162.335 356.798 170.036 366.272 170.036Z" fill="#5F6364"/>
<path d="M25.5731 140.457L2.97237 146.736C1.21017 147.226 -0.0106354 148.833 -0.0106354 150.664V159.264C-0.0106354 161.51 1.80464 163.341 4.05516 163.341H26.6665C28.9064 163.341 30.7323 161.521 30.7323 159.264V144.384C30.7323 141.691 28.174 139.733 25.5837 140.457H25.5731Z" fill="#3A3A3B"/>
<g style="mix-blend-mode:multiply" opacity="0.3">
<path d="M446.824 108.727H257.961V156.06H446.824V108.727Z" fill="#161818"/>
<path d="M494 118.849H489.637V124.171H494V118.849Z" fill="white"/>
<path d="M484.053 22.7353H257.961V107.599H484.117V24.3638C484.117 23.8103 484.096 23.2674 484.053 22.7246V22.7353Z" fill="#025DAF"/>
<path d="M257.961 42.9693V107.599H484.117V41.4153L257.961 42.9693Z" fill="#5F6364"/>
<path d="M257.961 53.4108V107.599H393.448L423.416 90.4621V52.1335L257.961 53.4108Z" fill="#3A3A3B"/>
<path d="M257.961 22.7353H484.054C483.215 10.0372 472.684 0 459.807 0H257.961V22.7353Z" fill="#00A147"/>
<path d="M257.961 107.599V118.86H351.973C355.572 117.583 361.453 116.008 368.767 116.38C373.916 116.636 378.151 117.785 381.177 118.86H484.117V107.599H257.961Z" fill="#00A147"/>
<path d="M257.961 124.171V147.62C265.031 146.917 271.697 146.204 277.525 145.406C282.249 144.757 286.984 144.129 291.729 143.522C294.489 143.171 297.26 142.83 300.02 142.489C300.827 142.394 301.623 142.298 302.43 142.202C302.653 142.181 302.95 142.138 303.321 142.096C303.491 142.074 303.672 142.053 303.873 142.032C313.374 140.957 322.886 139.956 332.419 139.03C334.744 133.197 338.502 128.099 343.268 124.182H257.961V124.171Z" fill="#025DAF"/>
<path d="M389.871 124.171C393.087 126.811 395.848 129.983 398.013 133.559C426.697 131.505 455.412 129.759 484.106 127.929V124.171H389.871Z" fill="#025DAF"/>
<path d="M257.961 118.849V124.171H343.268C345.89 122.011 348.82 120.222 351.973 118.849H257.961Z" fill="white"/>
<path d="M381.166 118.849C384.319 120.222 387.249 122.011 389.871 124.171H484.106V118.849H381.166Z" fill="white"/>
<path d="M332.408 139.03C322.886 139.956 313.374 140.957 303.863 142.032C303.661 142.053 303.481 142.074 303.311 142.096C302.939 142.138 302.642 142.181 302.419 142.202C301.612 142.298 300.816 142.394 300.009 142.49C297.239 142.83 294.479 143.171 291.718 143.522C286.984 144.129 282.249 144.757 277.515 145.406C271.687 146.215 265.02 146.928 257.95 147.62V163.298H331.326C330.328 159.945 329.776 156.39 329.776 152.708C329.776 147.875 330.71 143.256 332.398 139.03H332.408Z" fill="#00A147"/>
<path d="M398.013 133.57C401.4 139.147 403.353 145.704 403.353 152.707C403.353 156.39 402.811 159.945 401.803 163.298H418.374C431.792 163.298 484.106 152.388 484.106 138.934V127.939C455.401 129.781 426.697 131.516 398.013 133.57Z" fill="#00A147"/>
<path d="M366.272 183.011C382.894 183.011 396.368 169.501 396.368 152.835C396.368 136.17 382.894 122.66 366.272 122.66C349.651 122.66 336.177 136.17 336.177 152.835C336.177 169.501 349.651 183.011 366.272 183.011Z" fill="#3A3A3B"/>
<path d="M366.272 170.036C375.747 170.036 383.427 162.335 383.427 152.835C383.427 143.336 375.747 135.635 366.272 135.635C356.798 135.635 349.117 143.336 349.117 152.835C349.117 162.335 356.798 170.036 366.272 170.036Z" fill="#5F6364"/>
</g>
</g>
<defs>
<clipPath id="clip0_281_854">
<rect width="494" height="183" fill="white"/>
</clipPath>
</defs>
</svg>
