<svg width="223" height="311" viewBox="0 0 223 311" fill="none" xmlns="http://www.w3.org/2000/svg">
<rect y="250.451" width="222.929" height="60.5487" fill="#EFEAE1"/>
<g clip-path="url(#clip0_227_227)">
<path d="M130.312 30.6218C134.407 12.6641 143.096 7.78593 155.79 9.34099C154.042 4.98471 150.505 3.07284 147.175 1.98644C131.698 -3.08346 117.602 2.89178 112.121 5.15513C111.377 5.46401 104.733 9.24513 104.021 9.41555C102.985 9.66052 101.976 8.9469 101.02 8.31849C93.1753 3.16338 83.9921 2.70538 75.935 7.06699C78.9996 8.63802 82.1173 10.2463 84.7357 13.0902C87.3542 15.934 90.1638 25.7969 90.3019 30.6218H130.312Z" fill="#EFEAE1"/>
<path d="M111.467 17.2653C172.987 17.2653 222.935 67.3465 222.935 129.032V254.592C222.935 285.73 197.722 311.005 166.672 311.005H56.2621C25.2125 311 0 285.725 0 254.587V129.027C0 67.3466 49.947 17.2653 111.467 17.2653Z" fill="#EFEAE1"/>
<path d="M111.467 164.186C90.8543 164.186 73.9857 181.1 73.9857 201.768V230.638C73.9857 233.854 76.6095 236.485 79.8175 236.485H143.117C146.325 236.485 148.949 233.854 148.949 230.638V201.768C148.949 181.1 132.08 164.186 111.467 164.186Z" fill="white"/>
<path d="M75.935 123.105C75.935 110.843 66.0214 100.903 53.7924 100.903C41.5633 100.903 31.6497 110.843 31.6497 123.105V149.812C31.6497 162.074 41.5633 172.014 53.7924 172.014C66.0214 172.014 75.935 162.074 75.935 149.812V123.105Z" fill="white"/>
<path d="M193.229 123.105C193.229 110.843 183.315 100.903 171.086 100.903C158.857 100.903 148.943 110.843 148.943 123.105V149.812C148.943 162.074 158.857 172.014 171.086 172.014C183.315 172.014 193.229 162.074 193.229 149.812V123.105Z" fill="white"/>
<path d="M71.7019 129.298C71.7019 122.722 66.3849 117.391 59.8259 117.391C53.267 117.391 47.95 122.722 47.95 129.298V143.619C47.95 150.195 53.267 155.527 59.8259 155.527C66.3849 155.527 71.7019 150.195 71.7019 143.619V129.298Z" fill="#4D4D4D"/>
<path d="M176.944 129.298C176.944 122.722 171.627 117.391 165.068 117.391C158.51 117.391 153.192 122.722 153.192 129.298V143.619C153.192 150.195 158.51 155.527 165.068 155.527C171.627 155.527 176.944 150.195 176.944 143.619V129.298Z" fill="#4D4D4D"/>
<path d="M111.467 172.014C99.0283 172.014 88.8519 182.218 88.8519 194.691V199.116C88.8519 205.411 93.9879 210.561 100.266 210.561H122.663C128.941 210.561 134.077 205.411 134.077 199.116V194.691C134.077 182.218 123.901 172.014 111.462 172.014H111.467Z" fill="#4D4D4D"/>
<path d="M208.275 15.8328C195.236 5.50126 176.142 7.74331 165.839 20.8175L162.179 25.456C156.979 32.0543 158.105 41.7202 164.686 46.9338L188.162 65.5412C194.742 70.7549 204.382 69.6259 209.582 63.0276L213.241 58.389C223.545 45.3149 221.309 26.1696 208.27 15.8381L208.275 15.8328Z" fill="#EFEAE1"/>
<path d="M14.6537 15.8328C27.6929 5.50126 46.7868 7.74331 57.0906 20.8175L60.7501 25.456C65.9498 32.0543 64.8238 41.7202 58.2432 46.9338L34.7674 65.5412C28.1868 70.7549 18.5469 69.6259 13.3472 63.0276L9.68771 58.389C-0.621431 45.3149 1.61461 26.1643 14.6537 15.8328Z" fill="#EFEAE1"/>
<path d="M111.467 259.539C128.4 259.539 142.251 253.458 142.251 236.48H80.6832C80.6832 253.458 94.535 259.539 111.467 259.539Z" fill="#F5F5F5"/>
<path d="M44.5667 71.7082C32.7598 74.4721 24.6867 83.5468 26.6253 91.8706C27.1246 94.0061 28.8401 95.6517 31.1877 96.5677C34.3744 97.8085 38.6819 97.0097 41.5128 94.757C43.1486 93.4576 45.6608 91.9345 49.1344 91.1303C52.5602 90.3368 55.4548 90.5765 57.4784 91.0132C61.021 91.7747 65.2487 90.5765 67.5538 88.0362C67.5804 88.0096 67.6069 87.9776 67.6335 87.951C69.2747 86.1084 70.0501 83.9089 69.5615 81.8107C67.6229 73.4869 56.3736 68.9389 44.5667 71.7082Z" fill="#E0D6C3"/>
<path d="M180.317 71.7082C192.124 74.4721 200.197 83.5468 198.258 91.8706C197.759 94.0061 196.044 95.6517 193.696 96.5677C190.509 97.8085 186.202 97.0097 183.371 94.757C181.735 93.4576 179.223 91.9345 175.749 91.1303C172.324 90.3368 169.429 90.5765 167.405 91.0132C163.863 91.7747 159.635 90.5765 157.33 88.0362C157.303 88.0096 157.277 87.9776 157.25 87.951C155.609 86.1084 154.834 83.9089 155.322 81.8107C157.261 73.4869 168.51 68.9389 180.317 71.7082Z" fill="#E0D6C3"/>
<path d="M62.4816 131.935C65.1773 131.935 67.3626 129.743 67.3626 127.04C67.3626 124.337 65.1773 122.146 62.4816 122.146C59.7858 122.146 57.6005 124.337 57.6005 127.04C57.6005 129.743 59.7858 131.935 62.4816 131.935Z" fill="white"/>
<path d="M162.413 131.652C165.109 131.652 167.294 129.461 167.294 126.758C167.294 124.055 165.109 121.864 162.413 121.864C159.717 121.864 157.532 124.055 157.532 126.758C157.532 129.461 159.717 131.652 162.413 131.652Z" fill="white"/>
</g>
<defs>
<clipPath id="clip0_227_227">
<rect width="222.929" height="311" fill="white"/>
</clipPath>
</defs>
</svg>
