<svg width="347" height="198" viewBox="0 0 347 198" fill="none" xmlns="http://www.w3.org/2000/svg">
<path d="M23.4508 197.454C17.8153 197.454 13.0886 196.182 9.271 193.637C5.45336 190.91 3.09005 187.274 2.18109 182.729C1.27213 178.002 2.09019 172.73 4.63529 166.913L72.5348 20.7518C75.8071 13.6618 79.8065 8.48076 84.5332 5.20849C89.4416 1.93622 94.9862 0.300088 101.167 0.300088C107.348 0.300088 112.711 1.93622 117.256 5.20849C121.982 8.48076 126.073 13.6618 129.527 20.7518L197.426 166.913C200.335 172.73 201.335 178.002 200.426 182.729C199.699 187.456 197.426 191.091 193.609 193.637C189.973 196.182 185.428 197.454 179.974 197.454C172.703 197.454 167.067 195.818 163.068 192.546C159.25 189.274 155.796 184.002 152.705 176.73L137.98 142.098L157.068 156.005H44.7206L64.0815 142.098L49.3563 176.73C46.084 184.002 42.7208 189.274 39.2668 192.546C35.8127 195.818 30.5407 197.454 23.4508 197.454ZM100.622 55.1106L68.9899 130.645L61.3546 117.556H140.707L133.072 130.645L101.167 55.1106H100.622ZM265.788 198C255.426 198 246.246 196.091 238.247 192.273C230.43 188.455 224.249 183.274 219.704 176.73C215.341 170.004 213.159 162.368 213.159 153.824C213.159 144.007 215.704 136.281 220.795 130.645C225.885 125.01 234.065 121.01 245.337 118.647C256.608 116.102 271.606 114.829 290.33 114.829H305.328V137.735H290.33C283.24 137.735 277.332 138.281 272.605 139.371C268.061 140.28 264.697 141.826 262.516 144.007C260.334 146.007 259.244 148.643 259.244 151.915C259.244 156.096 260.698 159.55 263.607 162.277C266.697 165.004 271.06 166.368 276.696 166.368C281.241 166.368 285.24 165.368 288.694 163.368C292.33 161.368 295.239 158.641 297.42 155.187C299.602 151.552 300.692 147.37 300.692 142.644V111.012C300.692 104.467 298.965 99.8316 295.511 97.1047C292.239 94.3778 286.513 93.0143 278.332 93.0143C273.969 93.0143 269.06 93.5597 263.607 94.6505C258.153 95.5594 252.063 97.2865 245.337 99.8316C240.428 101.649 236.247 101.922 232.793 100.65C229.339 99.3771 226.612 97.1956 224.612 94.1051C222.794 91.0146 221.885 87.6515 221.885 84.0156C222.067 80.3797 223.249 76.9257 225.43 73.6534C227.794 70.3811 231.339 67.8361 236.065 66.0181C244.791 62.7459 252.79 60.5643 260.062 59.4736C267.515 58.3828 274.332 57.8375 280.513 57.8375C295.42 57.8375 307.691 60.019 317.326 64.382C327.143 68.5632 334.415 75.1078 339.142 84.0156C344.05 92.7416 346.504 104.013 346.504 117.829V172.912C346.504 180.911 344.595 187.001 340.778 191.182C336.96 195.364 331.415 197.454 324.144 197.454C316.69 197.454 310.964 195.364 306.964 191.182C303.147 187.001 301.238 180.911 301.238 172.912V165.822L302.874 169.64C301.965 175.457 299.874 180.457 296.602 184.638C293.33 188.819 289.058 192.091 283.786 194.455C278.514 196.818 272.515 198 265.788 198Z" fill="white"/>
</svg>
